<svg xmlns="http://www.w3.org/2000/svg" viewBox="0 0 100 100">
	<symbol id="blueprint" viewBox = "0 0 100 100">
			<rect x="1.179" y="0.862" width="43.058" height="98.06" style="fill:none;stroke-width:0.2px;stroke:#fff;"/>
			<path d="M20.269,98.976l0.043,-5.916l0,-2.738l-0.097,-7.115" style="stroke-width:0.2px;stroke:#fff;"/>
			<path d="M20.213,79.706l-0.028,-4.781l1.239,0.017l0.028,-7.266" style="stroke-width:0.2px;stroke:#fff;"/>
			<path d="M11.987,53.337l0.003,34.887l-10.75,0.025" style="stroke-width:0.2px;stroke:#fff;"/>
			<path d="M44.212,53.484l-22.831,0.054l0.042,8.247" style="stroke-width:0.2px;stroke:#fff;"/>
			<path d="M21.439,71.376l22.86,-0.01" style="stroke-width:0.2px;stroke:#fff;"/>
			<path d="M21.46,74.931l22.873,-0.015" style="stroke-width:0.2px;stroke:#fff;"/>
			<rect x="21.181" y="31.829" width="23.03" height="3.561" style="stroke-width:0.2px;stroke:#fff;"/>
			<rect x="21.631" y="35.454" width="22.573" height="4.651" style="stroke-width:0.2px;stroke:#fff;"/>
			<rect x="25.023" y="48.497" width="4.731" height="2.398" style="stroke-width:0.2px;stroke:#fff;"/>
			<rect x="29.754" y="48.573" width="6.351" height="2.336" style="stroke-width:0.2px;stroke:#fff;"/>
			<rect x="36.11" y="48.438" width="1.991" height="2.436" style="stroke-width:0.2px;stroke:#fff;"/>
			<rect x="38.475" y="48.464" width="5.158" height="2.444" style="stroke-width:0.2px;stroke:#fff;"/>
			<rect x="38.478" y="47.895" width="5.154" height="0.585" style="stroke-width:0.2px;stroke:#fff;"/>
			<rect x="11.991" y="53.441" width="0.984" height="34.776" style="stroke-width:0.2px;stroke:#fff;"/>
			<path d="M21.716,53.527l-0.022,-5.312l3.326,-0.009l-0.012,2.663l19.292,0.044" style="stroke-width:0.2px;stroke:#fff;"/>
			<path d="M8.276,35.314c2.562,0.03 4.608,3.005 4.565,6.639c-0.043,3.635 -2.157,6.561 -4.719,6.531c-2.562,-0.03 -4.608,-3.005 -4.565,-6.639c0.042,-3.635 2.157,-6.561 4.719,-6.531Z" style="stroke-width:0.2px;stroke:#fff;"/>
			<rect x="1.563" y="24.988" width="3.499" height="8.783" style="stroke-width:0.2px;stroke:#fff;"/>
			<rect x="1.545" y="1.194" width="2.643" height="3.716" style="stroke-width:0.2px;stroke:#fff;"/>
			<path d="M8.886,8.772c0,-0.646 -0.524,-1.17 -1.17,-1.17l-3.146,0c-0.646,0 -1.17,0.524 -1.17,1.17l0,2.342c0,0.646 0.524,1.17 1.17,1.17l3.146,0c0.646,0 1.17,-0.524 1.17,-1.17l0,-2.342Z" style="stroke-width:0.2px;stroke:#fff;"/>
			<path d="M8.902,13.643c0,-0.646 -0.524,-1.17 -1.17,-1.17l-3.146,0c-0.646,0 -1.17,0.524 -1.17,1.17l0,2.342c0,0.646 0.524,1.17 1.17,1.17l3.146,0c0.646,0 1.17,-0.524 1.17,-1.17l0,-2.342Z" style="stroke-width:0.2px;stroke:#fff;"/>
			<path d="M8.898,18.538c0,-0.647 -0.524,-1.171 -1.17,-1.171l-3.146,0c-0.646,0 -1.171,0.524 -1.171,1.171l0,2.341c0,0.646 0.525,1.17 1.171,1.17l3.146,0c0.646,0 1.17,-0.524 1.17,-1.17l0,-2.341Z" style="stroke-width:0.2px;stroke:#fff;"/>
			<path d="M3.46,5.8c0,-0.262 -0.213,-0.475 -0.475,-0.475l-0.95,0c-0.262,0 -0.474,0.213 -0.474,0.475l0,8.452c0,0.262 0.212,0.475 0.474,0.475l0.95,0c0.262,0 0.475,-0.213 0.475,-0.475l0,-8.452Z" style="stroke-width:0.2px;stroke:#fff;"/>
			<path d="M3.472,15.442c0,-0.262 -0.213,-0.475 -0.475,-0.475l-0.95,0c-0.262,0 -0.475,0.213 -0.475,0.475l0,8.661c0,0.262 0.213,0.474 0.475,0.474l0.95,0c0.262,0 0.475,-0.212 0.475,-0.474l0,-8.661Z" style="stroke-width:0.2px;stroke:#fff;"/>
			<path d="M32.971,37.011c0,-0.39 -0.316,-0.706 -0.706,-0.706l-1.411,0c-0.39,0 -0.706,0.316 -0.706,0.706l0,1.831c0,0.389 0.316,0.705 0.706,0.705l1.411,0c0.39,0 0.706,-0.316 0.706,-0.705l0,-1.831Z" style="stroke-width:0.2px;stroke:#fff;"/>
			<path d="M36.989,37.128c0,-0.447 -0.363,-0.811 -0.81,-0.811l-1.907,0c-0.447,0 -0.81,0.364 -0.81,0.811l0,1.621c0,0.447 0.363,0.81 0.81,0.81l1.907,0c0.447,0 0.81,-0.363 0.81,-0.81l0,-1.621Z" style="stroke-width:0.2px;stroke:#fff;"/>
			<rect x="29.788" y="35.427" width="7.557" height="4.67" style="stroke-width:0.2px;stroke:#fff;"/>
			<circle cx="31.601" cy="49.764" r="0.647" style="stroke-width:0.2px;stroke:#fff;"/>
			<circle cx="34.224" cy="49.718" r="0.805" style="stroke-width:0.2px;stroke:#fff;"/>
			<path d="M34.376,35.805c0,-0.069 -0.055,-0.124 -0.124,-0.124l-1.863,0c-0.069,0 -0.124,0.055 -0.124,0.124l0,0.248c0,0.069 0.055,0.125 0.124,0.125l1.863,0c0.069,0 0.124,-0.056 0.124,-0.125l0,-0.248Z" style="stroke-width:0.2px;stroke:#fff;"/>
			<path d="M34.368,37.423l-1.119,-1.719" style="stroke-width:0.2px;stroke:#fff;"/>
			<circle cx="30.202" cy="30.037" r="1.34" style="stroke-width:0.2px;stroke:#fff;"/>
			<circle cx="36.756" cy="30.09" r="1.34" style="stroke-width:0.2px;stroke:#fff;"/>
			<path d="M28.944,28.763c0.399,-0.741 2.688,-0.706 2.94,0.725" style="stroke-width:0.2px;stroke:#fff;"/>
			<path d="M35.004,29.739c-0.086,-0.838 1.827,-2.096 2.839,-1.054" style="stroke-width:0.2px;stroke:#fff;"/>
			<path d="M8.92,5.776c0,-0.305 -0.248,-0.552 -0.552,-0.552l-4.408,0c-0.304,0 -0.552,0.247 -0.552,0.552l0,1.103c0,0.305 0.248,0.552 0.552,0.552l4.408,0c0.304,0 0.552,-0.247 0.552,-0.552l0,-1.103Z" style="stroke-width:0.2px;stroke:#fff;"/>
			<path d="M8.886,22.858c0,-0.32 -0.26,-0.581 -0.58,-0.581l-4.298,0c-0.321,0 -0.581,0.261 -0.581,0.581l0,1.162c0,0.32 0.26,0.581 0.581,0.581l4.298,0c0.32,0 0.58,-0.261 0.58,-0.581l0,-1.162Z" style="stroke-width:0.2px;stroke:#fff;"/>
			<rect x="1.193" y="56.084" width="10.794" height="3.102" style="stroke-width:0.2px;stroke:#fff;"/>
			<rect x="1.193" y="62.281" width="10.804" height="3.102" style="stroke-width:0.2px;stroke:#fff;"/>
			<rect x="1.193" y="68.537" width="10.794" height="3.102" style="stroke-width:0.2px;stroke:#fff;"/>
			<rect x="1.193" y="75.244" width="10.794" height="3.102" style="stroke-width:0.2px;stroke:#fff;"/>
			<rect x="20.749" y="85.646" width="5.675" height="10.649" style="stroke-width:0.2px;stroke:#fff;"/>
			<rect x="21.236" y="96.749" width="4.721" height="1.724" style="stroke-width:0.2px;stroke:#fff;"/>
			<rect x="41.594" y="86.882" width="2.174" height="8.76" style="stroke-width:0.2px;stroke:#fff;"/>
			<rect x="40.945" y="96.03" width="2.842" height="2.434" style="stroke-width:0.2px;stroke:#fff;"/>
			<path d="M21.81,90.435l0.946,-2.971" style="stroke-width:0.2px;stroke:#fff;"/>
			<path d="M21.818,91.213l0.442,3.137" style="stroke-width:0.2px;stroke:#fff;"/>
			<path d="M24.345,89.688l-1.121,0.212l0.552,2.917l1.121,-0.212l-0.552,-2.917Z" style="stroke-width:0.2px;stroke:#fff;"/>
			<path d="M29.652,90.107c0,-0.351 -0.285,-0.637 -0.637,-0.637l-1.274,0c-0.351,0 -0.637,0.286 -0.637,0.637l0,1.44c0,0.352 0.286,0.637 0.637,0.637l1.274,0c0.352,0 0.637,-0.285 0.637,-0.637l0,-1.44Z" style="stroke-width:0.2px;stroke:#fff;"/>
			<path d="M29.522,88.832c0,-0.072 -0.058,-0.13 -0.129,-0.13l-1.569,0c-0.072,0 -0.13,0.058 -0.13,0.13l0,0.258c0,0.072 0.058,0.13 0.13,0.13l1.569,0c0.071,0 0.129,-0.058 0.129,-0.13l0,-0.258Z" style="stroke-width:0.2px;stroke:#fff;"/>
			<path d="M29.509,92.57c0,-0.071 -0.058,-0.129 -0.13,-0.129l-1.569,0c-0.072,0 -0.129,0.058 -0.129,0.129l0,0.259c0,0.071 0.057,0.129 0.129,0.129l1.569,0c0.072,0 0.13,-0.058 0.13,-0.129l0,-0.259Z" style="stroke-width:0.2px;stroke:#fff;"/>
			<path d="M30.252,92.347c0.101,0 0.183,-0.082 0.183,-0.182l0,-2.714c0,-0.101 -0.082,-0.183 -0.183,-0.183l-0.365,0c-0.101,0 -0.182,0.082 -0.182,0.183l0,2.714c0,0.1 0.081,0.182 0.182,0.182l0.365,0Z" style="stroke-width:0.2px;stroke:#fff;"/>
			<rect x="9.493" y="0.854" width="26.314" height="0.892" style="stroke-width:0.2px;stroke:#fff;"/>
			<path d="M6.785,34.939c0.277,-0.796 2.542,-1.125 3.018,0.248" style="stroke-width:0.2px;stroke:#fff;"/>
			<path d="M9.582,48.761c-0.248,0.804 -2.5,1.216 -3.025,-0.139" style="stroke-width:0.2px;stroke:#fff;"/>
			<path d="M3.064,43.549c-0.809,-0.232 -1.263,-2.476 0.082,-3.027" style="stroke-width:0.2px;stroke:#fff;"/>
			<path d="M13.313,40.454c0.816,0.206 1.343,2.433 0.017,3.028" style="stroke-width:0.2px;stroke:#fff;"/>
			<rect x="21.383" y="53.589" width="10.54" height="5.563" style="stroke-width:0.2px;stroke:#fff;"/>
			<rect x="36.694" y="53.609" width="7.538" height="17.748" style="stroke-width:0.2px;stroke:#fff;"/>
			<path d="M42.958,57.052c0,-0.692 -0.561,-1.254 -1.253,-1.254l-2.508,0c-0.692,0 -1.254,0.562 -1.254,1.254l0,10.997c0,0.692 0.562,1.254 1.254,1.254l2.508,0c0.692,0 1.253,-0.562 1.253,-1.254l0,-10.997Z" style="stroke-width:0.2px;stroke:#fff;"/>
			<ellipse cx="34.31" cy="57.512" rx="1.466" ry="2.071" style="stroke-width:0.2px;stroke:#fff;"/>
			<path d="M36.108,54.385c0,-0.196 -0.16,-0.356 -0.356,-0.356l-2.824,0c-0.197,0 -0.357,0.16 -0.357,0.356l0,0.713c0,0.196 0.16,0.356 0.357,0.356l2.824,0c0.196,0 0.356,-0.16 0.356,-0.356l0,-0.713Z" style="stroke-width:0.2px;stroke:#fff;"/>
			<path d="M42.946,78.567c-0.087,-0.725 -0.746,-1.243 -1.471,-1.156l-5.948,0.714c-0.725,0.087 -1.243,0.747 -1.156,1.472l0.316,2.627c0.087,0.725 0.746,1.243 1.471,1.156l5.948,-0.715c0.725,-0.087 1.243,-0.746 1.156,-1.471l-0.316,-2.627Z" style="stroke-width:0.2px;stroke:#fff;"/>
			<rect x="40.252" y="55.823" width="0.511" height="1.669" style="stroke-width:0.2px;stroke:#fff;"/>
			<ellipse cx="40.546" cy="54.866" rx="1.273" ry="0.349" style="stroke-width:0.2px;stroke:#fff;"/>
			<path d="M40.588,53.476l0.004,0.988" style="stroke-width:0.2px;stroke:#fff;"/>
	</symbol>
</svg>