<svg xmlns="http://www.w3.org/2000/svg" xmlns:xlink="http://www.w3.org/1999/xlink" version="1.1" x="0px" y="0px" viewBox="0 0 100 125" enable-background="new 0 0 100 100" xml:space="preserve"><g display="none"><path display="inline" d="M82.6,70.3l-3.7-6.5L77,60.7l-2.8-4.8c2.7-1.7,3.9-5,2-7.9l-7.2-10.7l-0.9-1.4c2.3-1.2,3.3-3.9,1.8-6.1   l-1.4-2.1l-7.4-11.2l-3-4.5L55,7.3C54,5.8,52.3,5,50.5,5C48.7,5,47,5.8,46,7.3l-2.8,4.2l-2.8,4.2l-1.9,2.8l-2,3.1L31,29.7   c-1.5,2.3-0.5,4.9,1.8,6.1l-6.4,9.6L24.7,48c-0.2,0.2-0.3,0.5-0.4,0.7c-0.7,1.5-0.7,3.1,0,4.5c0.4,0.5,0.7,0.9,1.1,1.4   c0.3,0.4,0.6,0.7,1,1.1c0.1,0.1,0.2,0.1,0.3,0.2l0,0.1l-1.9,3.3l-6.4,11.1c-1.8,3,0.4,6.8,3.9,6.8H41v10.9c0,3.8,3.1,6.9,6.9,6.9   h5.2c3.8,0,6.9-3.1,6.9-6.9V77.2h18.7C82.2,77.2,84.4,73.4,82.6,70.3z M45.2,14.9l2.5-3.8L49,9.3c0.3-0.5,1-0.6,1.5-0.6   s1.2,0.2,1.5,0.6l1.3,2l2.7,4L64.4,28c-0.3,0-0.7,0-1,0c-5.7,0-11.6-1.4-17-4.2c-1.8-0.9-3.5-1.9-5-3.1L45.2,14.9z M35.9,37.9   l2.2-3.4l-3.6-1.9C34.2,32.4,34,32.2,34,32c0,0,0-0.1,0.1-0.3l5.3-7.9c1.7,1.2,3.5,2.3,5.4,3.3c5.9,3,12.4,4.6,18.7,4.6   c1.1,0,2.3-0.1,3.4-0.2l0.1,0.2C67.1,31.9,67,32,67,32c0,0.2-0.2,0.4-0.6,0.6l-3.6,1.9l1.5,2.2c-3.8,3.4-8.6,6.1-13.9,8   c-4.5,1.5-9.1,2.3-13.6,2.3c-2.3,0-4.5-0.2-6.6-0.6L35.9,37.9z M27.8,50l0.2-0.3c2.8,0.6,5.7,1,8.8,1c4.9,0,9.9-0.8,14.8-2.5   c5.7-1.9,10.7-4.9,14.8-8.4L73.2,50c0.3,0.4,0.4,0.8,0.3,1.3c-0.1,0.6-0.5,1.1-1.2,1.5l-3,1.9l1.8,3.1l2.9,5   c-5.1,3-11.4,4.7-18.4,4.7c-2.6,0-5.3-0.2-7.9-0.7c-6.9-1.3-13.2-4.2-18.2-8.2l0.4-0.7l1.8-3.1l-3-1.9c-0.6-0.4-1-0.9-1.2-1.5   C27.4,50.8,27.5,50.4,27.8,50z M56.3,88.1c0,1.8-1.5,3.2-3.2,3.2h-5.2c-1.8,0-3.2-1.5-3.2-3.2V77.2h11.7V88.1z M79.5,73.1   c-0.1,0.2-0.3,0.4-0.8,0.4H22.3c-0.4,0-0.7-0.2-0.8-0.4c-0.1-0.2-0.2-0.5,0-0.9l6.1-10.5c5.4,4.2,12,7.2,19.4,8.6   c2.9,0.5,5.8,0.8,8.6,0.8c7.7,0,14.6-1.9,20.3-5.2l3.6,6.3C79.7,72.5,79.6,72.9,79.5,73.1z"/></g><g><g><path d="M77.1,48.7c0.2-9.4-3.9-18.7-11.4-25.3c-5.7-5-29.2-15.4-32-16.6c-9.3-3.5-17.4-2.2-22,3.4C8.3,14.4,7.3,20.7,8.9,28    c0.2,2.3,2.6,24,6.7,33c5.3,11.7,16,18.9,28.7,19.2c0.3,0,0.5,0,0.8,0C62.3,80.1,76.7,66,77.1,48.7z M45,74l-0.6,0    C34,73.8,25.5,68.1,21.1,58.4c-3.8-8.4-6.2-31-6.2-31.2l-0.1-0.3c-1.2-5.5-0.6-10,1.6-12.8c2-2.5,5.1-3.1,7.4-3.1    c2.3,0,4.9,0.5,7.5,1.5c7,3.1,26.1,11.8,30.3,15.5c3.6,3.2,9.6,10.1,9.4,20.6C70.7,62.6,59,74,45,74z"/><path d="M78.6,67.9c0.6-0.9,0.5-2.1-0.1-2.9c-0.5-0.6-1.2-1-1.9-1c-0.9,0-1.6,0.4-2.1,1.2c-1.9,3.1-4.8,6.3-8.2,9    c-3.2,2.6-6.7,4.7-10,6c-0.7,0.3-1.3,0.9-1.5,1.6c-0.2,0.8,0,1.6,0.5,2.2c0.5,0.6,1.2,0.9,1.9,0.9c0.3,0,0.7-0.1,1-0.2    c3.7-1.6,7.5-4,11.1-6.9C72.9,74.8,76.2,71.3,78.6,67.9z"/><path d="M82.8,73.5c0.8-0.9,0.8-2.2,0-3.2c-0.5-0.6-1.2-1-2-1c-0.8,0-1.5,0.3-1.9,1c-2.2,2.9-5.3,6-8.7,8.8    c-3.3,2.7-6.7,4.9-9.8,6.5c-0.7,0.3-1.1,0.9-1.3,1.7c-0.2,0.7,0,1.5,0.5,2.1c0.5,0.6,1.2,0.9,1.9,0.9c0.4,0,0.8-0.1,1.1-0.3    c3.4-1.8,7.1-4.3,10.6-7.1C77,79.9,80.3,76.6,82.8,73.5z"/><path d="M86.8,75.3L86.8,75.3c-0.5-0.6-1.1-0.9-1.8-0.9c-0.7,0-1.3,0.3-1.8,0.9c-2.3,2.9-5.5,6-9,8.9c-4.3,3.5-7.8,5.6-10,6.8    c-0.6,0.3-1,0.9-1.2,1.5c-0.1,0.7,0,1.3,0.5,1.8l0.1,0.1c0.4,0.5,1.1,0.8,1.7,0.8c0.4,0,0.7-0.1,1-0.3c3.4-1.9,7.1-4.4,10.7-7.3    c3.8-3.1,7.2-6.4,9.8-9.5C87.5,77.3,87.5,76.1,86.8,75.3z"/></g></g><g display="none"><path display="inline" d="M64.5,33.1l2.1-5.8c1.2-3.3-0.1-7-3-8.8l0.5-1.5l2.7-7.3c0.7-2,3-3,4.9-2.3s3,3,2.3,4.9L73,15.4   c-0.3,0.8,0.1,1.6,0.9,1.9s1.6-0.1,1.9-0.9l1.1-2.9c1.3-3.5-0.5-7.5-4.1-8.8c-3.4-1.3-7.2,0.4-8.7,3.7l0,0l-0.1,0.4L61.4,16   l-0.5,1.5c-3.4-0.5-6.8,1.4-8,4.7L50.7,28c-15.4-2.1-30.9,6.7-36.5,21.9c-6.5,17.6,2.5,37.2,20.1,43.7c17.6,6.5,37.2-2.5,43.7-20.1   C83.6,58.3,77.6,41.6,64.5,33.1z M56.6,23.6c0.6-1.7,2.6-2.6,4.3-2c1.7,0.6,2.6,2.6,2,4.3L61,31.1c-1-0.5-2-0.9-3.1-1.3   s-2.1-0.7-3.2-1L56.6,23.6z M74.2,72.1c-5.7,15.5-23,23.5-38.5,17.7c-15.5-5.7-23.5-23-17.7-38.5c5.7-15.5,23-23.5,38.5-17.7   C72,39.3,80,56.6,74.2,72.1z"/></g><g display="none"><path display="inline" d="M74.2,52.1C71.3,50,68.4,37,66.3,27.5c-1-4.6-2-9-2.9-12.3c-0.1-0.2-0.1-0.4-0.2-0.5l-3.6-8.1   C59.3,5.6,58.4,5,57.5,5c-0.3,0-0.5,0.1-0.8,0.2L20.9,20.9c-1.1,0.5-1.5,1.8-1,3.1l3.6,8.1c0.1,0.2,0.4,0.6,0.7,1   C32.7,45.3,42.7,62.6,43,64.6c0.3,2.2-2,7-3.9,10.8c-1.6,3.2-3,6.2-3.5,8.4c-0.7,3.8,0.8,7.4,4.1,9.6c1.7,1.1,3.7,1.7,5.8,1.7   c2.5,0,5.1-0.8,7.5-2.5c2.9-2,4.7-4.7,6.5-7.3c2.7-4.1,5.1-7.6,10.9-8.4c0.3,0,0.6-0.1,1-0.2C77.9,76,82.8,70.6,82.8,64   C82.8,58.2,79.4,55.8,74.2,52.1z M22.7,23.2L57.2,8l3.4,7.7c0,0.1,0,0.1,0.1,0.2c0,0.2,0.1,0.4,0.1,0.5l-1,7.2   c-0.1,0.4-0.3,0.5-0.7,0.3l-4.5-3.1c-0.3-0.2-0.7-0.4-1.1-0.4c-1,0-1.8,0.7-1.9,1.7l-0.8,5.4c-0.1,0.4-0.3,0.5-0.7,0.3l-4.5-3.1   c-0.3-0.2-0.7-0.3-1.1-0.3c0,0-0.1,0-0.2,0c-0.3,0-0.6,0.2-0.9,0.4c-0.4,0.4-0.6,0.9-0.6,1.2l-0.8,5.4c-0.1,0.4-0.3,0.5-0.7,0.3   l-4.5-3.1c-0.3-0.2-0.7-0.4-1.1-0.4c-1,0-1.8,0.7-1.9,1.7l-0.8,5.4c-0.1,0.4-0.4,0.5-0.7,0.3l-6-4.1c0,0,0,0,0,0   c-0.1-0.2-0.3-0.4-0.4-0.5L22.7,23.2z M51.4,90.3c-4,2.8-7.9,2.2-10.1,0.7c-2.3-1.5-3.3-4-2.8-6.6c0.1-0.5,0.3-1,0.5-1.6L51.7,90   C51.6,90.1,51.5,90.2,51.4,90.3z M57.1,83.7c-1,1.5-2,3-3.2,4.3l-13.8-8c0.5-1.1,1.1-2.3,1.6-3.4c2.3-4.6,4.6-9.4,4.1-12.5   c-0.3-2.4-7.9-15.5-15-26.3c0.6,0.4,1.2,0.6,1.9,0.6c1.6,0,2.9-1.2,3.2-2.8l0.6-4l3.3,2.3c0.6,0.4,1.2,0.6,1.9,0.6   c1.6,0,2.9-1.2,3.2-2.8l0.5-3.7l3.1,2.1c0.6,0.4,1.2,0.6,1.9,0.6c1.6,0,2.9-1.2,3.2-2.8l0.6-4l3.3,2.3c0.6,0.4,1.2,0.6,1.9,0.6   c1.6,0,2.9-1.2,3.2-2.8l0-0.3c0.3,1.4,0.6,2.9,1,4.4c2.8,12.5,4.9,21.3,7.8,25.1l-6,4.6c-1.9,1.4-2.6,3.8-1.9,6.1l3.5,11.1   C61.9,76.5,59.5,80.2,57.1,83.7z M71,73.8l-0.2,0l-0.2,0.1C70.4,74,70.2,74,70,74.1c-0.1,0-0.3,0-0.4,0.1L66,62.9   c-0.3-1.1,0-2.3,0.9-2.9l6.5-4.9c4.4,3.2,6.5,4.9,6.5,9C80,69.2,76.1,73.4,71,73.8z"/></g><g display="none"><path display="inline" d="M50.2,6.6c0.7,0,1.3,0.6,1.3,1.3l0,8.6h5l-4.7,8.1h4.7l-4.7,8.1h4.7l-5,8.6l0,5.1l3.3-3.3l2.7-10.2   l3.3,3.3l2.4-9l3.3,3.3l2.4-9l3.7,3.7l5.9-5.9c0.3-0.3,0.6-0.4,1-0.4c0.3,0,0.7,0.1,1,0.4c0.5,0.5,0.5,1.4,0,1.9L74.6,27l3.7,3.7   l-9,2.4l3.3,3.3l-9,2.4l3.3,3.3L57,44.8l-3.7,3.7l4.7,0l9.6-5.5v4.7l8.1-4.7v4.7l8.1-4.7v5.5l8.2,0c0,0,0,0,0,0   c0.7,0,1.3,0.6,1.3,1.3c0,0.7-0.6,1.3-1.3,1.3l-8.2,0v5l-8.1-4.7v4.7l-8.1-4.7v4.7L59,51.2l-5.7,0l3,3l11.1,3l-3.3,3.3l9,2.4   l-3.3,3.3l9,2.4l-4,4l5.9,5.9c0.5,0.5,0.5,1.4,0,1.9c-0.3,0.3-0.6,0.4-1,0.4c-0.3,0-0.7-0.1-0.9-0.4l-5.9-5.9l-3.4,3.4l-2.4-9   l-3.3,3.3l-2.4-9l-3.3,3.3l-2.4-9.1l-4-4l0,4.1l5.6,9.6h-4.7l4.7,8.1h-4.7l4.7,8.1h-5.5l0,8.5c0,0.7-0.6,1.3-1.3,1.3c0,0,0,0,0,0   c-0.7,0-1.3-0.6-1.3-1.3l0-8.6h-4.9l4.7-8.1h-4.7l4.7-8.1h-4.7l4.9-8.5l0-5.8l-3,3l-3,11.1l-3.3-3.3l-2.4,9L34,69.3l-2.4,9l-4-4   l-6.2,6.2c-0.3,0.3-0.6,0.4-1,0.4c-0.3,0-0.7-0.1-0.9-0.4c-0.5-0.5-0.5-1.4,0-1.9l6.2-6.2L22.3,69l9-2.4L28,63.3l9-2.4l-3.3-3.3   l9.1-2.4l4-4l-4.1,0l-9.6,5.5v-4.7L25,56.7v-4.7L17,56.7v-5.5l-8.9,0c0,0,0,0,0,0c-0.7,0-1.3-0.6-1.3-1.3c0-0.7,0.6-1.3,1.3-1.3   l8.9,0v-5l8.1,4.7v-4.7l8.1,4.7v-4.7l8.5,4.9l5.1,0l-3.2-3.2l-10.2-2.7l3.3-3.3l-9-2.4l3.3-3.3l-9-2.4l3.7-3.7l-6.2-6.2   c-0.5-0.5-0.5-1.4,0-1.9c0.3-0.3,0.6-0.4,1-0.4c0.3,0,0.7,0.1,1,0.4l6.2,6.2l3.7-3.7l2.4,9l3.3-3.3l2.4,9l3.3-3.3l2.7,9.9l3.7,3.7   l0-4.8l-5.5-9.5h4.7l-4.7-8.1h4.7l-4.7-8.1h5.4l0-8.5C48.8,7.2,49.4,6.6,50.2,6.6C50.2,6.6,50.2,6.6,50.2,6.6 M50.2,5L50.2,5   c-1.6,0-3,1.3-3,3l0,6.9h-3.8c-0.6,0-1.1,0.3-1.4,0.8c-0.3,0.5-0.3,1.1,0,1.6l3.3,5.6h-1.9c-0.6,0-1.1,0.3-1.4,0.8   c-0.3,0.5-0.3,1.1,0,1.6l3.3,5.6h-1.9c-0.5,0-1,0.3-1.3,0.7c-0.3,0.1-0.5,0.2-0.7,0.4l-1.3,1.3l-1.7-6.3c-0.1-0.6-0.6-1-1.1-1.1   c-0.1,0-0.3-0.1-0.4-0.1c-0.4,0-0.8,0.2-1.1,0.5l-1.3,1.3l-1.7-6.3c-0.1-0.6-0.6-1-1.1-1.1c-0.1,0-0.3-0.1-0.4-0.1   c-0.4,0-0.8,0.2-1.1,0.5l-2.5,2.5l-5.1-5.1c-0.6-0.6-1.3-0.9-2.1-0.9c-0.8,0-1.5,0.3-2.1,0.9c-1.2,1.2-1.1,3,0,4.2l5.1,5L20.7,30   c-0.4,0.4-0.6,1-0.4,1.6c0.1,0.6,0.6,1,1.1,1.1l6.3,1.7l-1.3,1.3c-0.4,0.4-0.6,1-0.4,1.6c0.1,0.6,0.6,1,1.1,1.1l6.3,1.7l-1.3,1.3   c-0.4,0.4-0.5,0.9-0.4,1.4c-0.1,0.2-0.2,0.5-0.2,0.8v1.9l-5.6-3.3C25.6,42.1,25.3,42,25,42s-0.6,0.1-0.8,0.2   c-0.5,0.3-0.8,0.8-0.8,1.4v1.9l-5.6-3.3C17.5,42.1,17.2,42,17,42c-0.3,0-0.6,0.1-0.8,0.2c-0.5,0.3-0.8,0.8-0.8,1.4V47l-7.2,0   c-1.6,0-3,1.3-3,3c0,1.6,1.3,3,3,3l7.2,0v3.9c0,0.6,0.3,1.1,0.8,1.4c0.2,0.1,0.5,0.2,0.8,0.2c0.3,0,0.6-0.1,0.8-0.2l5.6-3.3v1.9   c0,0.6,0.3,1.1,0.8,1.4c0.2,0.1,0.5,0.2,0.8,0.2s0.6-0.1,0.8-0.2l5.6-3.3v1.9c0,0.5,0.3,1,0.7,1.3c0.1,0.3,0.2,0.5,0.4,0.7l1.3,1.3   l-6.3,1.7c-0.6,0.1-1,0.6-1.1,1.1c-0.1,0.6,0,1.2,0.4,1.6l1.3,1.3l-6.3,1.7c-0.6,0.1-1,0.6-1.1,1.1c-0.1,0.6,0,1.2,0.4,1.6l2.2,2.2   l-5.1,5.1c-1.2,1.2-1.1,3,0,4.2c0.6,0.6,1.3,0.9,2.1,0.9c0.8,0,1.5-0.3,2.1-0.9l5-5.1l2.9,2.9c0.3,0.3,0.7,0.5,1.1,0.5   c0.1,0,0.3,0,0.4-0.1c0.6-0.1,1-0.6,1.1-1.1l1.7-6.3l1.3,1.3c0.3,0.3,0.7,0.5,1.1,0.5c0.1,0,0.3,0,0.4-0.1c0.6-0.1,1-0.6,1.1-1.1   l1.7-6.3l1.3,1.3c0.3,0.3,0.7,0.5,1.1,0.5c0.1,0,0.2,0,0.3,0c0.2,0.1,0.5,0.2,0.8,0.2h1.9l-3.3,5.6c-0.3,0.5-0.3,1.1,0,1.6   c0.3,0.5,0.8,0.8,1.4,0.8h1.9l-3.3,5.6c-0.3,0.5-0.3,1.1,0,1.6c0.3,0.5,0.8,0.8,1.4,0.8h3.3l0,6.9c0,1.6,1.3,3,3,3c1.6,0,3-1.3,3-3   l0-6.9h3.9c0.6,0,1.1-0.3,1.4-0.8c0.3-0.5,0.3-1.1,0-1.6l-3.3-5.6h1.9c0.6,0,1.1-0.3,1.4-0.8c0.3-0.5,0.3-1.1,0-1.6l-3.3-5.6h1.9   c0.5,0,1-0.3,1.3-0.7c0.3-0.1,0.5-0.2,0.7-0.4l1.3-1.3l1.7,6.3c0.1,0.6,0.6,1,1.1,1.1c0.1,0,0.3,0.1,0.4,0.1c0.4,0,0.8-0.2,1.1-0.5   l1.3-1.3l1.7,6.3c0.1,0.6,0.6,1,1.1,1.1c0.1,0,0.3,0.1,0.4,0.1c0.4,0,0.8-0.2,1.1-0.5l2.2-2.2l4.8,4.7c0.6,0.6,1.3,0.9,2.1,0.9   c0.8,0,1.5-0.3,2.1-0.9c1.2-1.2,1.1-3,0-4.2L77,72.6l2.9-2.9c0.4-0.4,0.6-1,0.4-1.6c-0.1-0.6-0.6-1-1.1-1.1l-6.3-1.7l1.3-1.3   c0.4-0.4,0.6-1,0.4-1.6c-0.1-0.6-0.6-1-1.1-1.1l-6.3-1.7l1.3-1.3c0.4-0.4,0.5-0.9,0.4-1.4c0.1-0.2,0.2-0.5,0.2-0.8v-1.9l5.6,3.3   c0.2,0.1,0.5,0.2,0.8,0.2c0.3,0,0.6-0.1,0.8-0.2c0.5-0.3,0.8-0.8,0.8-1.4v-1.9l5.6,3.3c0.2,0.1,0.5,0.2,0.8,0.2   c0.3,0,0.6-0.1,0.8-0.2c0.5-0.3,0.8-0.8,0.8-1.4v-3.4l6.6,0c1.6,0,3-1.3,3-3c0-1.6-1.3-3-3-3l-6.6,0V43c0-0.6-0.3-1.1-0.8-1.4   c-0.2-0.1-0.5-0.2-0.8-0.2c-0.3,0-0.6,0.1-0.8,0.2l-5.6,3.3V43c0-0.6-0.3-1.1-0.8-1.4c-0.2-0.1-0.5-0.2-0.8-0.2   c-0.3,0-0.6,0.1-0.8,0.2l-5.6,3.3V43c0-0.5-0.3-1-0.7-1.3c-0.1-0.3-0.2-0.5-0.4-0.7l-1.3-1.3L73,38c0.6-0.1,1-0.6,1.1-1.1   c0.1-0.6,0-1.2-0.4-1.6l-1.3-1.3l6.3-1.7c0.6-0.1,1-0.6,1.1-1.1c0.1-0.6,0-1.2-0.4-1.6L76.9,27l4.7-4.8c1.2-1.2,1.1-3,0-4.2   c-0.6-0.6-1.3-0.9-2.1-0.9c-0.8,0-1.5,0.3-2.1,0.9l-4.7,4.8l-2.6-2.6c-0.3-0.3-0.7-0.5-1.1-0.5c-0.1,0-0.3,0-0.4,0.1   c-0.6,0.1-1,0.6-1.1,1.1l-1.7,6.3L64.5,26c-0.3-0.3-0.7-0.5-1.1-0.5c-0.1,0-0.3,0-0.4,0.1c-0.6,0.1-1,0.6-1.1,1.1L60.1,33l-1.3-1.3   c-0.3-0.3-0.7-0.5-1.1-0.5c-0.1,0-0.2,0-0.3,0c-0.2-0.1-0.5-0.2-0.8-0.2h-1.9l3.3-5.6c0.3-0.5,0.3-1.1,0-1.6   c-0.3-0.5-0.8-0.8-1.4-0.8h-1.9l3.3-5.6c0.3-0.5,0.3-1.1,0-1.6c-0.3-0.5-0.8-0.8-1.4-0.8h-3.4l0-6.9C53.1,6.3,51.8,5,50.2,5L50.2,5   z"/></g><g display="none"><g display="inline"><path fill="none" d="M68.6,60L66,55c-2.2,0.2-4.4,1-6.3,2.2c-1,0.6-1.9,1.4-2.7,2.2l2.7,5.1c0.8-0.7,1.6-1.3,2.4-1.8    C64.2,61.5,66.4,60.6,68.6,60z"/><path fill="none" d="M22.2,34.9c-0.5-0.2-0.9-0.5-1.4-0.7c-2.8-1.6-5.2-3.7-7-6.2c-0.1,2.4,0.3,4.8,1.1,7.1    C17.3,35.6,19.8,35.6,22.2,34.9z"/><path fill="none" d="M18.7,42.8l0.6,1.2c0.9,1.7,2.6,2.7,4.4,2.7c0.8,0,1.6-0.2,2.3-0.6c1.2-0.6,2.1-1.6,2.5-2.9c0.3-1,0.3-2,0-3    c-1.1,0.6-2.3,1.1-3.5,1.5C22.9,42.4,20.8,42.7,18.7,42.8z"/><path fill="none" d="M66.1,68.9c-1.1,0.7-2,1.5-2.9,2.4l2.8,5.4c0.9-0.8,1.9-1.6,2.9-2.3c1.8-1.2,3.8-2,5.8-2.6l-2.6-5.1    C70,67,68,67.7,66.1,68.9z"/><path fill="none" d="M69.6,83.6l1.6,3.2c0.9,1.7,2.6,2.7,4.4,2.7c0.8,0,1.6-0.2,2.3-0.6c2.4-1.3,3.4-4.3,2.1-6.7l-1.9-3.6    c-1.9,0.3-3.6,1-5.3,2.1C71.6,81.4,70.5,82.5,69.6,83.6z"/><path fill="none" d="M33.9,20.8c0.1-0.2,0.3-0.4,0.4-0.6c2.1-2.8,4.7-5,7.7-6.5c-2.3-1.5-4.9-2.5-7.7-2.9c-2.6,2.6-4.1,6.2-4.1,10    c0.6-0.1,1.1-0.2,1.7-0.2C32.6,20.5,33.3,20.6,33.9,20.8z"/><path fill="none" d="M40.2,24.5c-0.2,0.3-0.5,0.7-0.7,1l2.3,4.5c2.4-2.3,5.3-4.1,8.6-5.2l-2.3-4.5l-0.4-0.7l0-0.1    c-0.1-0.1-0.1-0.2-0.2-0.3C44.6,20.3,42.1,22,40.2,24.5z"/><path fill="none" d="M45.5,37l2.1,4.1c0.8-0.7,1.6-1.3,2.5-1.9c2-1.3,4.1-2.2,6.3-2.7l-2.5-4.9C50.4,32.3,47.5,34.3,45.5,37z"/><path fill="none" d="M51.1,47.9l2.5,4.8c0.7-0.6,1.4-1.1,2.2-1.6c2.1-1.3,4.4-2.3,6.7-2.8l-2.6-5c-2.1,0.3-4,1-5.8,2.1    C53,46.1,52,46.9,51.1,47.9z"/><path fill="none" d="M24.8,12.1c-0.4,0.2-0.8,0.3-1.2,0.5c-2.6,1.3-4.7,3.2-6.3,5.5c0.1,0.4,0.2,0.7,0.3,1.1    c1,3.5,3.3,6.4,6.3,8.3c0-0.1,0-0.2,0-0.3c-0.1-0.4-0.2-0.8-0.3-1.2C22.4,21.3,22.8,16.4,24.8,12.1z"/><path d="M24,27.5c0-0.1-0.1-0.2-0.1-0.4c0,0.1,0,0.2,0,0.3C23.9,27.4,23.9,27.5,24,27.5z"/><polygon points="31.9,10.6 31.9,10.6 31.9,10.6   "/><path d="M84.4,79.9l-0.6-1.2l-3.9-7.6l-2-3.8l-4.1-7.9l-1.9-3.7l-4.1-8l-2.1-4l-4.1-7.8l-0.3-0.6l-2-3.8l-3.9-7.5l-2.7-5.1    l-0.3-0.6L52,17.3c-0.1-0.3-0.3-0.5-0.5-0.8c-0.2-0.3-0.4-0.6-0.5-0.8c0,0,0-0.1-0.1-0.1c-1-1.4-2.1-2.7-3.3-3.8    c-2.2-2-4.8-3.6-7.5-4.6c-2.6-1-5.4-1.5-8.2-1.5c-1,0-2,0.1-3,0.2c-2.6,0.3-5.1,1.1-7.5,2.4c-1.3,0.7-2.5,1.5-3.6,2.4    c-3.4,2.7-5.9,6.2-7.4,10.1C9,24.4,8.5,28.3,9.1,32.3c0.4,2.4,1.1,4.8,2.3,7.1l1.5,2.8l2.1,4c1.8,3.4,5.2,5.3,8.8,5.3    c1.5,0,3.1-0.4,4.5-1.1c2.5-1.3,4.2-3.6,5-6.1c0.7-2.3,0.5-4.9-0.7-7.2L29,30.3c-0.8-1.6-0.2-3.6,1.4-4.5c0.2-0.1,0.4-0.2,0.7-0.3    c0.1,0,0.2,0,0.4-0.1c0.2,0,0.3-0.1,0.5-0.1c1.2,0,2.4,0.7,3,1.8l2.5,4.9l1.1,2.1l4.4,8.5l0.8,1.5l0.4,0.7l4.1,8l1.8,3.5l4,7.8    l2.2,4.2l4.1,7.9l2.3,4.4l4.2,8.2l0,0.1c1.8,3.4,5.2,5.3,8.8,5.3c1.5,0,3.1-0.4,4.5-1.1C85,90.7,86.9,84.8,84.4,79.9z M23.6,12.6    c0.4-0.2,0.8-0.4,1.2-0.5c-1.9,4.4-2.4,9.2-1.2,13.9c0.1,0.4,0.2,0.8,0.3,1.2c0,0.1,0.1,0.2,0.1,0.4c-0.1,0-0.1-0.1-0.1-0.1    c-3.1-1.9-5.3-4.8-6.3-8.3c-0.1-0.4-0.2-0.7-0.3-1.1C18.9,15.8,21,13.9,23.6,12.6z M14.9,35.1c-0.9-2.3-1.2-4.7-1.1-7.1    c1.8,2.5,4.2,4.7,7,6.2c0.5,0.3,0.9,0.5,1.4,0.7C19.8,35.6,17.3,35.6,14.9,35.1z M28.5,43.2c-0.4,1.3-1.3,2.3-2.5,2.9    c-0.7,0.4-1.5,0.6-2.3,0.6c-1.9,0-3.6-1-4.4-2.7l-0.6-1.2c2.1-0.1,4.2-0.4,6.3-1.1c1.2-0.4,2.4-0.9,3.5-1.5    C28.8,41.1,28.8,42.2,28.5,43.2z M34.3,20.2c-0.1,0.2-0.3,0.4-0.4,0.6c-0.6-0.2-1.3-0.3-2-0.3c-0.6,0-1.1,0.1-1.7,0.2    c0-3.8,1.5-7.3,4.1-10c2.8,0.4,5.4,1.4,7.7,2.9C39.1,15.2,36.4,17.4,34.3,20.2z M41.9,30l-2.3-4.5c0.2-0.3,0.4-0.7,0.7-1    c1.8-2.5,4.4-4.3,7.3-5.2c0.1,0.1,0.1,0.2,0.2,0.3l0,0.1l0.4,0.7l2.3,4.5C47.2,25.9,44.2,27.7,41.9,30z M47.6,41.1L45.5,37    c2-2.7,5-4.7,8.4-5.4l2.5,4.9c-2.2,0.6-4.3,1.5-6.3,2.7C49.2,39.8,48.4,40.4,47.6,41.1z M55.8,51.1c-0.8,0.5-1.5,1-2.2,1.6    l-2.5-4.8c0.9-1,1.9-1.8,3-2.5c1.8-1.2,3.8-1.9,5.8-2.1l2.6,5C60.2,48.8,57.9,49.7,55.8,51.1z M62.2,62.7    c-0.9,0.6-1.7,1.2-2.4,1.8l-2.7-5.1c0.8-0.8,1.7-1.6,2.7-2.2c1.9-1.2,4.1-2,6.3-2.2l2.6,4.9C66.4,60.6,64.2,61.5,62.2,62.7z     M66,76.7l-2.8-5.4c0.8-0.9,1.8-1.7,2.9-2.4c1.8-1.2,3.9-1.9,6-2.2l2.6,5.1c-2,0.6-4,1.4-5.8,2.6C67.9,75.1,66.9,75.9,66,76.7z     M77.9,88.9c-0.7,0.4-1.5,0.6-2.3,0.6c-1.9,0-3.6-1-4.4-2.7l-1.6-3.2c0.9-1.1,2.1-2.2,3.3-3c1.6-1,3.4-1.7,5.3-2.1l1.9,3.6    C81.3,84.6,80.4,87.6,77.9,88.9z"/></g></g><g display="none"><path display="inline" d="M82.7,70.1l-8.3-14.4c2.7-1.7,3.9-5,2-7.9l-8-12.1c2.3-1.2,3.3-3.9,1.8-6.1L55.2,7.3   c-1-1.5-2.8-2.3-4.5-2.3c-1.8,0-3.5,0.8-4.5,2.3L31.3,29.6c-1.5,2.2-0.5,4.9,1.8,6.1l-8,12.1c-1.9,2.8-0.7,6.2,2,7.9l-8.3,14.4   c-1.7,3,0.4,6.8,3.9,6.8h18.6v10.9c0,3.8,3.1,6.9,6.9,6.9h5.1c3.8,0,6.9-3.1,6.9-6.9V76.9h18.6C82.3,76.9,84.5,73.1,82.7,70.1z    M56.5,87.8c0,1.8-1.5,3.2-3.2,3.2h-5.1c-1.8,0-3.2-1.5-3.2-3.2V76.9h11.6V87.8z M79.6,72.8c-0.1,0.2-0.3,0.4-0.8,0.4H22.6   c-0.4,0-0.7-0.2-0.8-0.4c-0.1-0.2-0.2-0.5,0-0.9l8.3-14.4l1.8-3.1l-3-1.9c-0.6-0.4-1-0.9-1.2-1.5c-0.1-0.4,0-0.8,0.3-1.3l8-12.1   l2.2-3.3l-3.5-1.9c-0.4-0.2-0.5-0.4-0.6-0.6c0,0,0-0.1,0.1-0.3L49.2,9.3c0.3-0.5,1-0.6,1.5-0.6c0.5,0,1.2,0.2,1.5,0.6l14.9,22.3   c0.1,0.2,0.1,0.3,0.1,0.3c0,0.2-0.2,0.4-0.6,0.6l-3.5,1.9l2.2,3.3l8,12.1c0.3,0.4,0.4,0.8,0.3,1.3c-0.1,0.6-0.5,1.1-1.2,1.5l-3,1.9   l1.8,3.1l8.3,14.4C79.8,72.3,79.7,72.6,79.6,72.8z"/></g><g display="none"><path display="inline" d="M89.2,37.8c1.1-1.1,1.5-2.7,1-4.2c-0.5-1.5-1.7-2.5-3.3-2.8l-22.2-3.2c-0.2,0-0.3-0.1-0.4-0.3L54.4,7.3   C53.7,5.9,52.3,5,50.8,5s-3,0.9-3.6,2.3l-9.9,20.1c-0.1,0.2-0.2,0.3-0.4,0.3l-22.2,3.2c-1.5,0.2-2.8,1.3-3.3,2.8   c-0.5,1.5-0.1,3.1,1,4.2l16.1,15.6c0.1,0.1,0.2,0.3,0.2,0.5l-3.8,22.1c-0.2,1.2,0.1,2.4,0.9,3.3c1.2,1.4,3.3,1.9,5,1l11-5.8   l-3.8,14.9v0.2c0,4.8,11.6,4.9,12.9,4.9s12.9-0.1,12.9-4.9v-0.2l-3.9-15l11.2,5.9c0.6,0.3,1.2,0.5,1.9,0.5c1.2,0,2.3-0.5,3.1-1.5   c0.8-0.9,1.1-2.1,0.9-3.3L73,54c0-0.2,0-0.4,0.2-0.5L89.2,37.8z M52.5,11.4l8.7,17.5c0.6,1.2,1.7,2,3.1,2.2l20.2,2.9L52.6,44   c0,0-0.1-0.1-0.1-0.1L52.5,11.4z M37.3,31.2c1.3-0.2,2.5-1,3.1-2.2L49,11.4L49,44c-0.2,0-0.3,0.1-0.5,0.2L18.4,33.9L37.3,31.2z    M28.7,73.8L32,54.6c0.2-1.3-0.2-2.7-1.2-3.6l-14.4-14l30.9,10.6L28.7,73.8z M59.9,89.5c-0.9,0.6-4.2,1.6-9.3,1.6   c-5.1,0-8.3-1-9.3-1.6l4.4-17c0,0,0-0.1,0-0.1l4.7-2.5c0.2-0.1,0.4-0.1,0.5,0l4.4,2.3c0,0,0,0,0,0L59.9,89.5z M52.7,66.8   c-0.6-0.3-1.2-0.5-1.9-0.5c-0.7,0-1.3,0.2-1.9,0.5l-17.3,9.1l18.7-26.3l19.3,26.1L52.7,66.8z M69.5,54.6l3.4,19.7L53.1,47.6l31-9.7   L70.7,51C69.7,51.9,69.3,53.2,69.5,54.6z"/></g><g display="none"><path display="inline" d="M87.8,24.9H57l12-4.1c2.7-0.4,3.9-3.5,2.2-5.7l-7-8.8c-0.6-0.8-1.5-1.2-2.5-1.3c-1.5-0.1-3,0.7-3.6,2.2   l-8.3,13.3l-6.7-13C42.7,5.9,41.3,5,39.8,5c-0.9,0-1.8,0.4-2.6,1.1l-7.7,8.2c-1.8,2-0.9,5.2,1.8,5.8l11,4.8H12.2   c-3.3,0-6.1,2.7-6.1,6.1v21.3c0,3.1,2.4,5.7,5.5,6v28.8c0,4,3.2,7.2,7.2,7.2h62.5c4,0,7.2-3.2,7.2-7.2V58.3c3.1-0.3,5.5-2.9,5.5-6   V31C93.9,27.6,91.2,24.9,87.8,24.9z M61.6,11l4.5,5.6L56,20.1L61.6,11z M39.5,10.9l4.9,9.5l-9.8-4.3L39.5,10.9z M12.2,53.5   c-0.6,0-1.2-0.5-1.2-1.2V31c0-0.6,0.5-1.2,1.2-1.2h34.1v23.7H12.2z M83.5,87.1c0,1.3-1,2.3-2.3,2.3H18.8c-1.3,0-2.3-1-2.3-2.3V58.4   h67V87.1z M89,52.3c0,0.6-0.5,1.2-1.2,1.2H53.7V29.8h34.1c0.6,0,1.2,0.5,1.2,1.2V52.3z"/></g><g display="none"><path display="inline" d="M65.6,58.6c1.9-2.7,2.9-6,2.9-9.3c0-5-2.4-9.8-6.3-12.9c1.9-2.3,2.9-5.1,2.9-8.1c0-2.6-0.8-5.1-2.2-7.2   c1.6-0.2,2.9-1.6,2.9-3.3v-0.1c0-1.8-1.5-3.3-3.3-3.3h-0.3v-4.1c0-2.9-2.4-5.3-5.3-5.3h-8.9c-2.9,0-5.3,2.4-5.3,5.3v4.1h-0.3   c-1.8,0-3.3,1.5-3.3,3.3v0.1c0,1.7,1.3,3.1,2.9,3.3c-1.5,2.1-2.2,4.6-2.2,7.2c0,3,1,5.8,2.9,8.1c-4,3.1-6.3,7.8-6.3,12.9   c0,3.3,1,6.6,2.9,9.3c-4.6,3.9-7.4,9.8-7.4,15.9c0,11.4,9.3,20.7,20.7,20.7c11.4,0,20.7-9.3,20.7-20.7   C73.1,68.4,70.3,62.5,65.6,58.6z M41.4,59.8l0.6-0.5l0.4-0.3l-0.3-0.4l-0.5-0.6c-2-2.5-3.1-5.6-3.1-8.7c0-4.7,2.4-9.1,6.4-11.6   l0.8-0.5l0.5-0.3l-0.4-0.4l-0.7-0.7c-2-2-3.1-4.6-3.1-7.4c0-2.7,1-5.3,2.9-7.2h14.9c1.9,1.9,2.9,4.5,2.9,7.2c0,2.8-1.1,5.4-3.1,7.4   l-0.7,0.7l-0.4,0.4l0.5,0.3l0.8,0.5c4,2.6,6.4,6.9,6.4,11.6c0,3.2-1.1,6.3-3.1,8.7l-0.5,0.6L62.2,59l0.4,0.3l0.6,0.5   c4.7,3.5,7.4,8.9,7.4,14.7c0,10.1-8.2,18.3-18.3,18.3C42.2,92.8,34,84.6,34,74.5C34,68.6,36.7,63.3,41.4,59.8z M45.1,16.3   c-0.1-0.3-0.1-0.5-0.1-0.8v-5.2c0-1.6,1.3-2.9,2.9-2.9h8.9c1.6,0,2.9,1.3,2.9,2.9v5.2c0,0.3,0,0.5-0.1,0.8l-0.2,0.6H60h2.4   c0.5,0,0.9,0.4,0.9,0.9v0.1c0,0.5-0.4,0.9-0.9,0.9h-1.9H44.1h-1.9c-0.5,0-0.9-0.4-0.9-0.9v-0.1c0-0.5,0.4-0.9,0.9-0.9h2.4h0.6   L45.1,16.3z"/></g><g display="none"><path display="inline" d="M81.4,34.5c-0.8-1-1.8-1.8-3-2.4c0.4-0.8,0.8-1.6,1-2.4c0.8-2.7,0.4-5.5-0.9-7.9s-3.6-4.2-6.2-4.9   c-1.2-0.3-2.5-0.5-3.8-0.3c0-0.9-0.2-1.7-0.5-2.6c-1.4-4.3-5.3-7.2-9.9-7.2C57.1,6.8,56,7,55,7.3c-1.2,0.4-2.4,1-3.4,1.8   c-0.5-0.7-1.1-1.3-1.8-1.9C48,5.8,45.7,5,43.3,5c-3.2,0-6.1,1.4-8.1,3.9c-0.8,1-1.4,2.1-1.8,3.4c-0.8-0.3-1.7-0.5-2.5-0.6   c-5.8-0.5-10.7,3.7-11.2,9.4c-0.1,1.3,0,2.6,0.4,3.8c-0.8,0.2-1.7,0.5-2.4,0.9c-2.4,1.3-4.2,3.5-5,6.2c-0.8,2.7-0.5,5.5,0.8,7.9   c0.6,1.1,1.4,2.1,2.4,3c-0.6,0.6-1.1,1.4-1.5,2.1c-1.3,2.4-1.6,5.2-0.8,7.9c0.8,2.6,2.6,4.8,5,6.1c1.1,0.6,2.4,1,3.6,1.1   c-0.1,0.9-0.2,1.7-0.1,2.6c0.5,5.3,4.9,9.4,10.3,9.4c0.3,0,0.7,0,1,0c1.3-0.1,2.5-0.5,3.7-1.1c0.4,0.8,0.8,1.5,1.4,2.2   c1,1.2,2.3,2.2,3.7,2.9l-1.9,8.5c-0.3,1.1,0.5,2.3,1.6,2.5c0.2,0,0.3,0.1,0.5,0.1c1,0,1.8-0.7,2.1-1.7l1.9-8.5c0.1,0,0.2,0,0.3,0   c1.5,0,3-0.3,4.4-1l2.5,17.2c0.2,1.1,1.1,1.8,2.1,1.8c0.1,0,0.2,0,0.3,0c1.2-0.2,2-1.2,1.8-2.4L55,74.9c0.7,0.2,1.5,0.3,2.3,0.3   c4,0,7.5-2.2,9.3-5.7c0.6-1.2,0.9-2.4,1-3.7c0.9,0.1,1.7,0.1,2.6,0c2.7-0.3,5.2-1.7,6.9-3.9c1.7-2.2,2.5-4.9,2.1-7.6   c-0.2-1.3-0.6-2.5-1.2-3.6c0.8-0.4,1.5-0.9,2.2-1.4c2.1-1.8,3.4-4.3,3.6-7.1S83.2,36.6,81.4,34.5z M30.2,41.9   c2.4-2.7,3.3-6.4,2.3-9.9c3.5-0.9,6.3-3.5,7.4-6.9c1.1,0.4,2.3,0.6,3.5,0.6c2.4,0,4.7-0.8,6.5-2.3c1.9,2.6,5,4.2,8.3,4.2   c0.3,0,0.7,0,1,0c0.2,3.6,2.3,6.8,5.5,8.5c-1.8,3.1-1.9,7-0.2,10.1c-0.7,0.4-1.4,0.8-2,1.3c-0.7-0.3-1.6-0.3-2.3,0.3l-8.2,5.6   c-0.5-0.8-1.3-1.4-2.3-1.4h-0.1c-1,0-1.8,0.5-2.3,1.3l-8.3-5.6c-1.4-1.2-3.8-0.1-3.8,1.7v2.3c-1-0.1-0.9-0.3-1.5-0.3   C34.1,47.9,32.9,44.2,30.2,41.9z M46.9,74.1l2.2-10.1l1.3,9C49.4,73.6,48.2,74,46.9,74.1z M80.9,41.8c-0.2,2-1.1,3.8-2.6,5.1   c-0.8,0.7-1.8,1.2-2.9,1.5c-0.5,0.1-0.8,0.5-1,1c-0.1,0.5-0.1,1,0.3,1.4c0.9,1.1,1.4,2.4,1.6,3.8c0.2,2-0.3,3.9-1.5,5.5   s-3,2.6-5,2.8c-1.1,0.1-2.2,0-3.2-0.3c-0.5-0.2-1-0.1-1.4,0.2c-0.4,0.3-0.6,0.8-0.5,1.3c0.1,1.4-0.1,2.8-0.7,4   c-1.3,2.6-3.8,4.1-6.7,4.1c-0.9,0-1.8-0.2-2.7-0.5l-1.8-12.6l7.3,6.4c1.3,1.1,2.9,0.2,2.9-1.5V50.2c1-0.9,2.3-1.6,3.7-2   c0.5-0.1,1-0.5,1.1-1c0.1-0.5,0.1-1-0.2-1.4c-2.3-2.8-2.2-6.9,0.2-9.6c0.3-0.4,0.5-0.9,0.3-1.3c-0.1-0.5-0.5-0.8-1-1   c-3.5-1.1-5.6-4.5-5.2-8.1c0.1-0.5-0.1-1-0.5-1.3c-0.4-0.3-0.9-0.4-1.3-0.3c-0.7,0.2-1.4,0.3-2.1,0.3c-2.8,0-5.5-1.6-6.7-4.2   c-0.2-0.4-0.6-0.7-1.1-0.8c-0.5-0.1-1,0.1-1.3,0.5c-1.4,1.7-3.5,2.6-5.7,2.6c-1.3,0-2.6-0.4-3.8-1c-0.4-0.2-0.9-0.3-1.4,0   c-0.4,0.2-0.7,0.6-0.8,1.1c-0.4,3.6-3.4,6.4-7,6.6c-0.5,0-0.9,0.3-1.2,0.7c-0.2,0.4-0.3,0.9,0,1.4c1.6,3.2,0.7,7.2-2.2,9.4   c-0.4,0.3-0.6,0.8-0.6,1.3c0,0.5,0.3,0.9,0.7,1.2c3.2,1.8,4.6,5.6,3.3,9c-0.2,0.5-0.1,1,0.2,1.4c0.3,0.4,0.6,0.6,1.1,0.6   c1.2-0.1,2.2,0.1,3.2,0.5v9.3c0,1.7,2.1,2.6,3.4,1.5l7.4-6.2l-3,13.7c-0.8-0.4-1.5-1-2.1-1.8c-0.7-0.9-1.2-1.8-1.4-2.9   c-0.1-0.5-0.5-0.9-0.9-1c-0.2-0.1-0.3-0.1-0.5-0.1c-0.3,0-0.6,0.1-0.9,0.3c-1.1,0.9-2.4,1.4-3.8,1.5c-4.2,0.4-7.8-2.6-8.2-6.7   c-0.1-1.1,0-2.2,0.4-3.2c0.2-0.5,0.1-1-0.2-1.4c-0.3-0.4-0.8-0.6-1.3-0.6c-1.4,0.1-2.8-0.2-4-0.8c-1.8-0.9-3.1-2.5-3.6-4.4   c-0.6-1.9-0.4-3.9,0.5-5.7c0.5-1,1.2-1.8,2.1-2.5c0.4-0.3,0.6-0.8,0.6-1.3s-0.3-0.9-0.7-1.2c-1.2-0.7-2.2-1.7-2.9-2.9   c-0.9-1.8-1.2-3.8-0.6-5.7c0.6-1.9,1.8-3.5,3.6-4.4c1-0.5,2-0.8,3.1-0.9c0.5,0,0.9-0.3,1.2-0.7c0.2-0.4,0.3-0.9,0-1.4   c-0.6-1.3-0.9-2.7-0.8-4c0.4-4.1,3.9-7.1,8.1-6.8c1.1,0.1,2.1,0.4,3.1,1c0.4,0.2,0.9,0.3,1.4,0c0.4-0.2,0.7-0.6,0.8-1.1   c0.2-1.4,0.7-2.7,1.6-3.8c1.4-1.8,3.6-2.8,5.8-2.8c1.7,0,3.3,0.6,4.7,1.6c0.9,0.7,1.5,1.5,2,2.6c0.2,0.4,0.6,0.7,1.1,0.8   c0.5,0.1,1-0.1,1.3-0.5c0.9-1.1,2.1-1.9,3.4-2.3c0.7-0.2,1.5-0.4,2.3-0.4c3.3,0,6.1,2.1,7.1,5.2c0.3,1,0.4,2.1,0.3,3.3   c-0.1,0.5,0.1,1,0.5,1.3c0.4,0.3,0.9,0.4,1.3,0.3c1.3-0.4,2.8-0.4,4.1,0c1.9,0.5,3.5,1.8,4.5,3.5c1,1.7,1.2,3.8,0.7,5.7   c-0.3,1.1-0.8,2-1.6,2.9c-0.3,0.4-0.4,0.9-0.3,1.3c0.1,0.5,0.5,0.8,1,1c1.3,0.4,2.5,1.2,3.4,2.3C80.5,37.9,81.1,39.9,80.9,41.8z"/></g><g display="none"><path display="inline" fill="#000000" d="M21.7,47L21.7,47L21.7,47z"/><path display="inline" d="M95.9,62c-3.1-2.6-4.8-6.7-4.6-11c0-1.1,0.2-2.2,0.5-3.3c0.2-0.6,0-1.2-0.3-1.7c-0.4-0.6-1.1-0.8-1.9-0.8   l0.1,0C82.9,45,79,38.3,80,31.8c0,0,0,0,0-0.1c0-1.1-1-2-2.1-2c-1.1,0-2.1,0.8-2.2,1.9c-0.3,7.5-4.6,12.7-10.5,12.7   c-0.1,0-0.3,0-0.4,0l-0.1,0c-0.1,0-0.2,0-0.3,0c-0.6,0-1.2,0.2-1.6,0.7s-0.6,1.1-0.5,1.7c0.2,1.1,0.3,2.2,0.3,3.3   c-0.2,4.3-2.2,8.3-5.4,10.6c-0.5,0.4-0.8,0.9-0.8,1.6c0,0.6,0.2,1.2,0.7,1.6c3.1,2.6,4.8,6.7,4.6,11c-0.1,1.9-0.5,3.6-1.2,5.3   c-0.3,0.6-0.2,1.4,0.2,1.9c0.4,0.6,1.1,0.9,1.8,0.9c0.2,0,0.5,0,0.7,0l0.3,0c3.3,0.1,5.7,1,7.3,2.6c1.6,1.7,2.3,4.3,2.3,7.8   c0,0,0,0,0,0.1c0,1.1,0.8,1.6,1.9,1.6c0,0,0.1,0,0.1,0c1.1,0,2-0.7,2-1.7c0.3-8,5.8-9.6,10.3-9.6c0.2,0,0.5,0.1,0.7,0.1   c0.3,0,0.7,0.1,1,0.1c0.7,0.1,1.4-0.2,1.8-0.7c0.4-0.5,0.6-1.3,0.3-1.9c-0.6-1.7-0.9-3.5-0.8-5.4c0.2-4.3,2.2-8.3,5.4-10.6   c0.5-0.4,0.8-0.9,0.8-1.5C96.6,63,96.4,62.4,95.9,62z M86.3,75.7c-0.1,1.4,0,2.8,0.3,4.1c-5,0.2-8.9,2.1-11.2,5.5   c-0.5-0.9-1.1-1.8-1.8-2.5c-2-2.1-4.9-3.4-8.5-3.7c0.3-1.3,0.5-2.7,0.6-4.1c0.2-4.7-1.4-9.3-4.4-12.6c3.2-3.1,5.1-7.5,5.3-12.2   c0-0.6,0-1.2,0-1.9c3.4-0.4,6.4-2,8.7-4.6L74.5,75c0,1.1,0.8,2,1.9,2c0,0,0,0,0.1,0c1.1,0,2-0.8,2-1.9l0.8-31c2,2.6,4.8,4.4,8.1,5   c-0.1,0.6-0.1,1.2-0.2,1.9c-0.2,4.7,1.4,9.3,4.4,12.6C88.4,66.5,86.5,71,86.3,75.7z"/><path display="inline" d="M68.7,21.6c-0.2-1.1-1.3-1.8-2.4-1.5c-1.3,0.3-2.6,0.4-3.9,0.4h0c-5.8,0-10-2.9-11.1-7.6l-0.1-0.4   c-0.1-0.6-0.5-1.1-1.1-1.4c-0.6-0.3-1.2-0.3-1.8,0c-1,0.5-2.1,0.9-3.1,1.1c-4.2,0.9-8.6,0-11.7-2.6c-0.5-0.4-1.1-0.5-1.7-0.4   c-0.6,0.1-1.1,0.5-1.4,1.1c-1.7,3.6-5.2,6.3-9.5,7.3c-1.8,0.4-3.7,0.5-5.5,0.2c-0.7-0.1-1.4,0.1-1.8,0.7c-0.5,0.5-0.6,1.3-0.4,1.9   c0.1,0.3,0.2,0.6,0.3,0.9c1.5,6.6-1,10.4-7.7,11.9c-0.9,0.2-1.6,1-1.6,1.9c0,0.1,0,0.3,0,0.4c0.2,1.1,1.3,1.8,2.4,1.5   c1.1-0.2,2.1-0.4,3.1-0.4c5.9,0,8.2,4.7,9.1,8.6c0.1,0.3,0.1,0.6,0.2,1c0.1,0.7,0.5,1.3,1.2,1.6c0.6,0.3,1.4,0.2,1.9-0.2   c1.5-1,3.2-1.8,5-2.2c4.2-0.9,8.6,0,11.7,2.6c0.4,0.3,0.8,0.5,1.3,0.5c0.1,0,0.3,0,0.4,0c0.6-0.1,1.1-0.5,1.4-1.1   c1.7-3.6,5.2-6.2,9.5-7.2c1-0.2,2.1-0.2,3.3-0.2c0,0,0,0,0,0c0.6,0,1.2-0.4,1.6-0.9c0.4-0.5,0.5-1.2,0.4-1.8c0-0.1,0-0.2-0.1-0.3   l0-0.1c-1.5-6.6,4.2-11.5,10.5-12.9c0.9-0.2,1.6-1,1.6-2C68.7,21.9,68.7,21.8,68.7,21.6z M52.4,35.9c-0.6,0.1-1.2,0.2-1.8,0.3   c-4.6,1-8.6,3.7-11,7.4c-2.7-1.6-5.8-2.5-9.1-2.5c-1.4,0-2.7,0.2-4.1,0.5c-1.4,0.3-2.7,0.7-3.9,1.3c-1.4-4.8-4.3-8.1-8.1-9.5   c3-2.7,4.2-6.5,3.4-11.5c0,0,0,0,0,0c1.4,0,2.7-0.2,4.1-0.5c4.6-1,8.6-3.7,11-7.4c3.8,2.3,8.6,3,13.2,2c0.6-0.1,1.2-0.3,1.8-0.5   c1.2,3.2,3.6,5.7,6.7,7.2L24,30c-1.1,0.3-1.7,1.3-1.5,2.4c0.2,0.9,1,1.5,1.9,1.5c0.2,0,0.3,0,0.5-0.1l30.2-7.1   C53.2,29.5,52.2,32.6,52.4,35.9z"/><g display="inline"><circle cx="72.8" cy="16.3" r="5.1"/><circle cx="83.1" cy="22.7" r="5.1"/><circle cx="84.4" cy="10" r="5.1"/></g></g><g display="none"><rect x="5" y="5" display="inline" fill="#000000" stroke="#1F84FF" stroke-miterlimit="10" width="90" height="90"/></g></svg>