<svg xmlns="http://www.w3.org/2000/svg" xmlns:xlink="http://www.w3.org/1999/xlink" version="1.1" x="0px" y="0px" viewBox="0 0 100 125" style="enable-background:new 0 0 100 100;" xml:space="preserve"><path d="M12,45.5l23.3,7.6c0.2,1,0.6,2,1,3L21.9,75.9c-1.2,1.6-1.7,3.6-1.3,5.6c0.3,2,1.4,3.7,3,4.9c1.3,0.9,2.8,1.4,4.4,1.4  c0.4,0,0.8,0,1.2-0.1c2-0.3,3.7-1.4,4.9-3l14.4-19.8c0.5,0.1,1,0.1,1.6,0.1c0.5,0,1.1,0,1.6-0.1L66,84.7c1.2,1.6,2.9,2.7,4.9,3  c0.4,0.1,0.8,0.1,1.2,0.1c1.6,0,3.1-0.5,4.4-1.4c1.6-1.2,2.7-2.9,3-4.9c0.3-2-0.2-4-1.3-5.6L63.7,56.1c0.4-0.9,0.8-1.9,1-3L88,45.5  c1.9-0.6,3.5-1.9,4.4-3.7c0.9-1.8,1.1-3.8,0.5-5.7c-0.6-1.9-1.9-3.5-3.7-4.4c-1.8-0.9-3.8-1.1-5.7-0.5L60,38.9  c-0.8-0.7-1.6-1.3-2.5-1.8V12.5C57.5,8.4,54.1,5,50,5s-7.5,3.4-7.5,7.5V37c-0.9,0.5-1.7,1.1-2.5,1.8l-23.3-7.6  c-1.9-0.6-3.9-0.5-5.7,0.5c-1.8,0.9-3.1,2.5-3.7,4.4C6.6,38,6.7,40,7.7,41.8C8.6,43.6,10.1,44.9,12,45.5z M84.9,36  c0.6-0.2,1.3-0.2,1.9,0.2c0.6,0.3,1,0.8,1.2,1.5c0.2,0.6,0.2,1.3-0.1,1.9c-0.3,0.6-0.8,1-1.5,1.2l-21.6,7c-0.2-1.7-0.8-3.3-1.5-4.8  L84.9,36z M60.7,60.5l13.4,18.4c0.8,1.1,0.6,2.7-0.6,3.5c-0.5,0.4-1.2,0.6-1.9,0.4c-0.7-0.1-1.2-0.5-1.6-1L56.7,63.4  C58.2,62.7,59.5,61.7,60.7,60.5z M47.5,12.5c0-1.4,1.1-2.5,2.5-2.5s2.5,1.1,2.5,2.5v22.7C51.7,35.1,50.9,35,50,35s-1.7,0.1-2.5,0.2  V12.5z M50,40c5.5,0,10,4.5,10,10s-4.5,10-10,10s-10-4.5-10-10S44.5,40,50,40z M43.3,63.4L30,81.8c-0.4,0.5-1,0.9-1.6,1  c-0.7,0.1-1.3-0.1-1.9-0.4c-1.1-0.8-1.4-2.4-0.6-3.5l13.4-18.4C40.5,61.7,41.8,62.7,43.3,63.4z M12,37.6c0.2-0.6,0.6-1.2,1.2-1.5  c0.4-0.2,0.7-0.3,1.1-0.3c0.3,0,0.5,0,0.8,0.1l21.6,7c-0.8,1.5-1.3,3.1-1.5,4.8l-21.6-7c-0.6-0.2-1.2-0.6-1.5-1.2  C11.8,39,11.8,38.3,12,37.6z"/><path d="M50,55c2.8,0,5-2.2,5-5s-2.2-5-5-5s-5,2.2-5,5S47.2,55,50,55z"/></svg>