<svg xmlns="http://www.w3.org/2000/svg" viewBox="0 0 100 125">


	<symbol id="thermometer_filter" viewBox="0 0 100 125">
		<rect x="48.459" y="22.526" width="5.58" height="1.548"/>
		<rect x="48.459" y="36.892" width="5.58" height="1.555"/>
		<rect x="48.459" y="51.264" width="5.58" height="1.552"/>
		<path d="M61.799,64.792V15.544C61.799,9.722,57.076,5,51.249,5c-5.818,0-10.99,4.723-10.99,10.544v49.615  c-3.641,3.11-5.961,7.728-5.961,12.893c0,9.36,7.588,16.948,16.952,16.948c9.365,0,16.953-7.588,16.953-16.948  C68.202,72.679,65.697,67.898,61.799,64.792z M51.249,89.307c-6.203,0-11.235-5.032-11.235-11.238c0-4.164,2.292-7.758,5.655-9.7  V17.555c0-3.038,2.545-5.499,5.58-5.499s5.589,2.46,5.589,5.499v50.816c3.361,1.943,5.648,5.536,5.648,9.697  C62.486,84.274,57.463,89.307,51.249,89.307z"/>
		<path d="M54.254,70.692V59.746h-6.006v10.946c-2.911,1.188-4.968,4.038-4.968,7.376c0,4.403,3.569,7.973,7.969,7.973  c4.409,0,7.97-3.569,7.97-7.973C59.219,74.73,57.168,71.88,54.254,70.692z"/>
	</symbol>


	<symbol id="speedometer_filter" viewBox="0 0 100 125">
		<path d="M50,5C25.147,5,5,25.147,5,50s20.147,45,45,45s45-20.147,45-45S74.853,5,50,5z M50,91.5C27.08,91.5,8.5,72.92,8.5,50  C8.5,27.08,27.08,8.5,50,8.5S91.5,27.08,91.5,50C91.5,72.92,72.92,91.5,50,91.5z"/>
		<path d="M19,50c0-17.121,13.879-31,31-31s31,13.879,31,31h3.5c0-19.054-15.446-34.5-34.5-34.5S15.5,30.946,15.5,50H19z"/>
		<circle cx="82.75" cy="50" r="1.75"/>
		<circle cx="17.25" cy="50" r="1.75"/>
		<g>
			<circle cx="61.758" cy="29.653" r="1.75"/>
			<circle cx="50" cy="50" r="1.75"/>
			<path d="M51.751,46.97c-1.674-0.967-3.814-0.394-4.782,1.279c-0.967,1.674-0.394,3.814,1.279,4.782   c1.674,0.967,3.814,0.394,4.782-1.279C53.998,50.078,53.425,47.937,51.751,46.97z"/>
			<rect x="44.129" y="38.077" transform="matrix(0.5004 -0.8658 0.8658 0.5004 -6.5629 68.2806)" width="23.5" height="3.5"/>
		</g>
	</symbol>


	<symbol id="speaker_filter" viewBox="0 0 100 125">
		<path d="M64.256,49.487c0-1.938-0.293-3.839-0.871-5.652c-0.559-1.753-1.37-3.378-2.41-4.832c-2.08-2.907-4.973-4.943-8.153-5.737  V6.602c0-1.426-0.817-2.664-2.131-3.232c-0.45-0.2-0.927-0.301-1.419-0.301c-0.885,0-1.743,0.334-2.417,0.94L18.359,30.003  c-0.278,0.243-0.489,0.556-0.692,0.86l-11.44,3.016c-1.098,0.283-1.865,1.271-1.865,2.403v27.455c0,1.149,0.749,2.115,1.864,2.402  l11.437,3.015c0.196,0.343,0.472,0.637,0.692,0.857l0.001,0.001l28.499,25.997c0.665,0.595,1.51,0.923,2.379,0.923  c0.491,0,0.956-0.105,1.421-0.319c0.629-0.279,1.163-0.732,1.544-1.309c0.383-0.58,0.586-1.245,0.586-1.923V65.672  c3.184-0.795,6.084-2.824,8.17-5.719c1.045-1.45,1.86-3.072,2.422-4.82C63.961,53.324,64.256,51.424,64.256,49.487z M59.272,49.452  c0,2.478-0.642,4.844-1.857,6.841c-0.583,0.959-1.282,1.802-2.076,2.504c-0.773,0.683-1.619,1.219-2.517,1.592V38.515  c0.898,0.373,1.745,0.909,2.517,1.592c0.794,0.702,1.492,1.545,2.076,2.504C58.63,44.609,59.272,46.974,59.272,49.452z   M45.718,14.699v70.619L24.325,65.822V34.195L45.718,14.699z M17.221,36.137v27.708L9.381,61.8V38.182L17.221,36.137z"/>
		<path d="M72.733,70.418c1.528-1.87,2.847-3.952,3.922-6.188c1.074-2.235,1.901-4.62,2.458-7.089c0.565-2.503,0.851-5.09,0.851-7.689  c0-2.599-0.286-5.185-0.851-7.689c-0.557-2.468-1.384-4.853-2.458-7.089c-1.074-2.236-2.394-4.318-3.922-6.188  c-1.55-1.898-3.314-3.576-5.242-4.987c-0.476-0.35-1.035-0.535-1.616-0.535c-0.865,0-1.658,0.404-2.175,1.107  c-0.433,0.588-0.612,1.304-0.505,2.016c0.107,0.713,0.49,1.343,1.077,1.775c6.422,4.721,10.256,12.792,10.256,21.589  c0,8.798-3.834,16.868-10.257,21.59c-0.574,0.435-0.952,1.065-1.063,1.774c-0.112,0.716,0.062,1.432,0.492,2.017  c0.52,0.694,1.336,1.108,2.181,1.108c0.646,0,1.189-0.181,1.611-0.538C69.421,73.992,71.184,72.314,72.733,70.418z"/>
		<path d="M74.546,5.394c-0.476-0.35-1.035-0.535-1.616-0.535c-0.865,0-1.658,0.404-2.175,1.107c-0.433,0.588-0.612,1.304-0.505,2.016  c0.107,0.712,0.49,1.343,1.077,1.775c11.818,8.665,18.874,23.504,18.874,39.696c0,16.191-7.056,31.031-18.875,39.696  c-0.575,0.435-0.952,1.065-1.063,1.774c-0.112,0.716,0.062,1.432,0.492,2.017c0.52,0.694,1.336,1.108,2.181,1.108  c0.554,0,1.125-0.19,1.609-0.536c13.207-9.722,21.091-26.193,21.091-44.059C95.637,31.526,87.753,15.055,74.546,5.394z"/>
	</symbol>


	<symbol id="remote_filter" viewBox="0 0 100 125">
		<g>
			<path d="M84.836,61.899L44.133,16.025c-1.938-2.184-4.724-3.436-7.645-3.436c-2.728,0-5.292,1.062-7.222,2.992L15.582,29.267   c-2.012,2.012-3.072,4.686-2.987,7.529s1.304,5.449,3.432,7.337l45.872,40.703c1.871,1.661,4.279,2.575,6.779,2.575   c2.73,0,5.296-1.062,7.227-2.992l8.514-8.515C88.233,72.088,88.418,65.936,84.836,61.899z M82.473,73.959l-8.514,8.515   c-1.41,1.41-3.285,2.187-5.281,2.187c-1.827,0-3.586-0.668-4.954-1.881L17.851,42.076c-1.555-1.38-2.445-3.284-2.508-5.362   c-0.062-2.078,0.714-4.032,2.185-5.502l13.685-13.685c1.409-1.41,3.283-2.187,5.276-2.187c2.135,0,4.172,0.915,5.588,2.511   l40.703,45.874C85.396,66.674,85.262,71.17,82.473,73.959z"/>
			<path d="M60.42,57.15c1.32,0,2.562-0.514,3.495-1.447c0.935-0.934,1.448-2.175,1.448-3.495c0-1.321-0.514-2.562-1.447-3.495   c-0.934-0.934-2.176-1.448-3.496-1.448c-1.319,0-2.562,0.515-3.495,1.448c-1.926,1.927-1.926,5.062,0,6.99   C57.858,56.636,59.101,57.15,60.42,57.15z M58.87,50.657c0.414-0.414,0.965-0.643,1.55-0.643c0.586,0,1.137,0.229,1.552,0.643   c0.414,0.414,0.642,0.964,0.642,1.55c0,0.585-0.228,1.136-0.643,1.55c-0.826,0.828-2.271,0.829-3.101,0   C58.016,52.903,58.016,51.512,58.87,50.657z"/>
			<path d="M65.363,68.634c0-1.321-0.514-2.562-1.447-3.495c-0.934-0.934-2.176-1.448-3.496-1.448c-1.319,0-2.562,0.515-3.495,1.448   c-1.926,1.927-1.926,5.062,0,6.99c0.934,0.934,2.176,1.448,3.495,1.448c1.32,0,2.562-0.514,3.495-1.447   C64.85,71.196,65.363,69.955,65.363,68.634z M61.971,70.185c-0.826,0.828-2.271,0.829-3.101,0c-0.854-0.855-0.854-2.246,0-3.101   c0.414-0.414,0.965-0.643,1.55-0.643c0.586,0,1.137,0.229,1.552,0.643c0.414,0.414,0.642,0.964,0.642,1.55   C62.613,69.22,62.386,69.771,61.971,70.185z"/>
			<path d="M63.691,60.421c0,1.32,0.514,2.562,1.447,3.495c0.934,0.934,2.176,1.448,3.496,1.448c1.319,0,2.562-0.515,3.495-1.448   c1.926-1.927,1.926-5.062,0-6.99c-0.934-0.934-2.176-1.448-3.495-1.448c-1.32,0-2.562,0.514-3.495,1.447   C64.205,57.859,63.691,59.1,63.691,60.421z M67.084,58.87c0.414-0.414,0.965-0.642,1.551-0.642c0.585,0,1.136,0.228,1.55,0.642   c0.854,0.855,0.854,2.246,0,3.101c-0.829,0.828-2.272,0.828-3.102,0c-0.414-0.414-0.642-0.964-0.642-1.55   C66.441,59.835,66.669,59.284,67.084,58.87z"/>
			<path d="M55.703,56.926c-0.934-0.934-2.176-1.448-3.495-1.448c-1.32,0-2.562,0.514-3.495,1.447   c-0.935,0.934-1.448,2.175-1.448,3.496c0,1.32,0.514,2.562,1.447,3.495c0.934,0.934,2.176,1.448,3.496,1.448   c1.319,0,2.562-0.515,3.495-1.448C57.629,61.988,57.629,58.853,55.703,56.926z M53.758,61.971c-0.829,0.828-2.272,0.828-3.102,0   c-0.414-0.414-0.642-0.964-0.642-1.55c0-0.586,0.228-1.137,0.643-1.551c0.414-0.414,0.965-0.642,1.551-0.642   c0.585,0,1.136,0.228,1.55,0.642C54.612,59.725,54.612,61.116,53.758,61.971z"/>
			<path d="M36.469,27.966c1.394,0,2.704-0.543,3.69-1.529c0.985-0.985,1.528-2.296,1.528-3.69s-0.543-2.705-1.528-3.69   c-0.986-0.986-2.297-1.529-3.69-1.529s-2.704,0.543-3.69,1.529c-0.985,0.985-1.528,2.296-1.528,3.69s0.543,2.705,1.528,3.69   C33.765,27.423,35.075,27.966,36.469,27.966z M34.724,21.001c0.466-0.466,1.086-0.723,1.745-0.723s1.279,0.257,1.745,0.723   c0.467,0.466,0.724,1.086,0.724,1.746s-0.257,1.279-0.724,1.746c-0.932,0.933-2.559,0.933-3.49,0   C34.257,24.026,34,23.406,34,22.747S34.257,21.468,34.724,21.001z"/>
			<path d="M23.188,32.752c-0.537-0.537-1.408-0.537-1.945,0l-3.649,3.649c-0.536,0.537-0.536,1.407,0,1.944l3.649,3.649   c0.269,0.269,0.621,0.403,0.973,0.403s0.704-0.134,0.973-0.403l3.649-3.649c0.536-0.537,0.536-1.407,0-1.944L23.188,32.752z    M22.215,39.079l-1.705-1.705l1.705-1.705l1.705,1.705L22.215,39.079z"/>
			<path d="M70.663,71.637c-0.535-0.537-1.407-0.537-1.944,0l-4.793,4.793c-0.536,0.537-0.536,1.407,0,1.944l3.535,3.536   c0.258,0.258,0.608,0.403,0.973,0.403s0.715-0.145,0.973-0.403l4.794-4.794c0.258-0.258,0.402-0.607,0.402-0.972   s-0.145-0.714-0.403-0.972L70.663,71.637z M68.434,78.994l-1.591-1.591l2.849-2.849l1.592,1.591L68.434,78.994z"/>
			<path d="M78.423,63.879c-0.258-0.258-0.607-0.403-0.973-0.403c-0.364,0-0.715,0.145-0.973,0.403l-4.794,4.793   c-0.536,0.537-0.536,1.407,0,1.944l3.535,3.536c0.258,0.258,0.607,0.403,0.973,0.403c0.364,0,0.715-0.145,0.973-0.403l4.794-4.793   c0.536-0.537,0.536-1.407,0-1.944L78.423,63.879z M76.191,71.236l-1.591-1.591l2.85-2.849l1.591,1.591L76.191,71.236z"/>
			<path d="M50.744,49.723v-6.986c0-0.759-0.615-1.375-1.375-1.375s-1.375,0.616-1.375,1.375v5.611h-5.611   c-0.76,0-1.375,0.616-1.375,1.375s0.615,1.375,1.375,1.375h6.986C50.129,51.098,50.744,50.482,50.744,49.723z"/>
			<path d="M41.008,31.646c0,0.759,0.615,1.375,1.375,1.375h5.611v5.611c0,0.759,0.615,1.375,1.375,1.375s1.375-0.616,1.375-1.375   v-6.986c0-0.759-0.615-1.375-1.375-1.375h-6.986C41.623,30.271,41.008,30.887,41.008,31.646z"/>
			<path d="M31.293,40.007c0.76,0,1.375-0.616,1.375-1.375v-5.611h5.61c0.76,0,1.375-0.616,1.375-1.375s-0.615-1.375-1.375-1.375   h-6.985c-0.76,0-1.375,0.616-1.375,1.375v6.986C29.918,39.392,30.533,40.007,31.293,40.007z"/>
			<path d="M38.278,48.348h-5.61v-5.611c0-0.759-0.615-1.375-1.375-1.375s-1.375,0.616-1.375,1.375v6.986   c0,0.759,0.615,1.375,1.375,1.375h6.985c0.76,0,1.375-0.616,1.375-1.375S39.038,48.348,38.278,48.348z"/>
			<path d="M44.32,43.354c1.472-1.472,1.472-3.867,0-5.339L43,36.695c-1.426-1.425-3.911-1.425-5.339,0l-1.319,1.32   c-1.472,1.472-1.472,3.867,0,5.339l1.319,1.319c0.714,0.713,1.661,1.106,2.67,1.106s1.956-0.393,2.67-1.106L44.32,43.354z    M42.375,41.41l-1.319,1.319c-0.387,0.388-1.062,0.388-1.449,0l-1.319-1.319c-0.194-0.194-0.301-0.451-0.301-0.725   s0.106-0.531,0.301-0.725l1.318-1.319c0.194-0.194,0.451-0.3,0.726-0.3s0.531,0.106,0.725,0.3l1.319,1.32   c0.194,0.194,0.301,0.451,0.301,0.725S42.569,41.216,42.375,41.41z"/>
		</g>
	</symbol>


	<symbol id="plug_filter" viewBox="-38 -38 100 125">
		<path d="M42-1.333C40.001-1.333,38.667,0,38.667,2v23.333c0,0.668-0.332,20-16.667,20c-12.725,0-15.921-11.25-16.725-16.878  C16.561,27,25.333,17.335,25.333,5.667V-8c0-2-1.334-3.333-3.333-3.333h-6.667v-13.333c0-2-1.334-3.333-3.333-3.333  c-2,0-3.333,1.333-3.333,3.333v13.333H-4.667v-13.333C-4.667-26.667-6-28-8-28s-3.333,1.333-3.333,3.333v13.333H-18  c-2,0-3.333,1.333-3.333,3.333V5.667c0,11.629,8.714,21.265,19.94,22.771C-0.155,38.048,5.543,52,22,52  c18.333,0,23.333-17.334,23.333-26.667V2C45.333,0,43.999-1.333,42-1.333z M-14.667,5.667V-4.667h33.001V5.667  C18.335,14.666,11,22,2,22H1.667C-7.333,22-14.667,14.666-14.667,5.667z"/>
	</symbol>


	<symbol id="fan_filter" viewBox="0 0 100 125">
		<path d="M12,45.5l23.3,7.6c0.2,1,0.6,2,1,3L21.9,75.9c-1.2,1.6-1.7,3.6-1.3,5.6c0.3,2,1.4,3.7,3,4.9c1.3,0.9,2.8,1.4,4.4,1.4  c0.4,0,0.8,0,1.2-0.1c2-0.3,3.7-1.4,4.9-3l14.4-19.8c0.5,0.1,1,0.1,1.6,0.1c0.5,0,1.1,0,1.6-0.1L66,84.7c1.2,1.6,2.9,2.7,4.9,3  c0.4,0.1,0.8,0.1,1.2,0.1c1.6,0,3.1-0.5,4.4-1.4c1.6-1.2,2.7-2.9,3-4.9c0.3-2-0.2-4-1.3-5.6L63.7,56.1c0.4-0.9,0.8-1.9,1-3L88,45.5  c1.9-0.6,3.5-1.9,4.4-3.7c0.9-1.8,1.1-3.8,0.5-5.7c-0.6-1.9-1.9-3.5-3.7-4.4c-1.8-0.9-3.8-1.1-5.7-0.5L60,38.9  c-0.8-0.7-1.6-1.3-2.5-1.8V12.5C57.5,8.4,54.1,5,50,5s-7.5,3.4-7.5,7.5V37c-0.9,0.5-1.7,1.1-2.5,1.8l-23.3-7.6  c-1.9-0.6-3.9-0.5-5.7,0.5c-1.8,0.9-3.1,2.5-3.7,4.4C6.6,38,6.7,40,7.7,41.8C8.6,43.6,10.1,44.9,12,45.5z M84.9,36  c0.6-0.2,1.3-0.2,1.9,0.2c0.6,0.3,1,0.8,1.2,1.5c0.2,0.6,0.2,1.3-0.1,1.9c-0.3,0.6-0.8,1-1.5,1.2l-21.6,7c-0.2-1.7-0.8-3.3-1.5-4.8  L84.9,36z M60.7,60.5l13.4,18.4c0.8,1.1,0.6,2.7-0.6,3.5c-0.5,0.4-1.2,0.6-1.9,0.4c-0.7-0.1-1.2-0.5-1.6-1L56.7,63.4  C58.2,62.7,59.5,61.7,60.7,60.5z M47.5,12.5c0-1.4,1.1-2.5,2.5-2.5s2.5,1.1,2.5,2.5v22.7C51.7,35.1,50.9,35,50,35s-1.7,0.1-2.5,0.2  V12.5z M50,40c5.5,0,10,4.5,10,10s-4.5,10-10,10s-10-4.5-10-10S44.5,40,50,40z M43.3,63.4L30,81.8c-0.4,0.5-1,0.9-1.6,1  c-0.7,0.1-1.3-0.1-1.9-0.4c-1.1-0.8-1.4-2.4-0.6-3.5l13.4-18.4C40.5,61.7,41.8,62.7,43.3,63.4z M12,37.6c0.2-0.6,0.6-1.2,1.2-1.5  c0.4-0.2,0.7-0.3,1.1-0.3c0.3,0,0.5,0,0.8,0.1l21.6,7c-0.8,1.5-1.3,3.1-1.5,4.8l-21.6-7c-0.6-0.2-1.2-0.6-1.5-1.2  C11.8,39,11.8,38.3,12,37.6z"/>
	<path d="M50,55c2.8,0,5-2.2,5-5s-2.2-5-5-5s-5,2.2-5,5S47.2,55,50,55z"/>
	</symbol>


	<symbol id="bulb_filter" viewBox="0 0 100 125">
		<g>
		<path d="M33.224,87.771L11.478,66.025c-1.232-1.232-0.978-2.68,0.001-3.66c0.977-0.977,2.426-1.232,3.659,0l21.746,21.746   c1.233,1.232,0.978,2.682,0,3.66C35.904,88.75,34.457,89.004,33.224,87.771L33.224,87.771z M87.984,12.083   c14.459,14.459,14.458,37.819,0.05,52.227C80.675,71.67,70.905,75.275,61.236,75.09c-3.404,0.312-6.682,1.777-13.688,8.186   c-1.688,1.543-3.62,1.096-4.819-0.215c-1.198-1.309-1.471-3.275,0.215-4.818c7.423-6.791,12.281-9.508,18.106-9.971   c7.927,0.189,16.117-2.742,22.159-8.785C94.955,47.741,94.953,28.7,83.152,16.897C71.406,5.153,52.371,5.158,40.625,16.902   c-6.041,6.041-8.972,14.23-8.784,22.156c-0.463,5.826-3.18,10.684-9.971,18.109c-1.542,1.686-3.509,1.414-4.818,0.215   s-1.757-3.133-0.215-4.818c6.409-7.007,7.875-10.284,8.185-13.688c-0.185-9.67,3.42-19.438,10.78-26.798   C50.21-2.33,73.575-2.325,87.984,12.083L87.984,12.083z M27.208,93.787L5.462,72.041c-1.233-1.232-0.979-2.68,0-3.66   c0.979-0.979,2.427-1.232,3.659,0l21.746,21.748c1.233,1.23,0.979,2.678,0,3.656C29.888,94.766,28.44,95.02,27.208,93.787   L27.208,93.787z M18.844,97.455L1.794,80.408c-1.233-1.236-0.979-2.682,0-3.662c0.979-0.979,2.426-1.232,3.66,0l17.049,17.051   c1.232,1.23,0.979,2.68,0,3.658C21.523,98.436,20.076,98.689,18.844,97.455L18.844,97.455z M13.766,97.316   c-2.882,1.053-6.601,0.129-9.318-2.59c-2.719-2.717-3.642-6.436-2.588-9.318L13.766,97.316L13.766,97.316z"/>
	</g>
	</symbol>


	<symbol id="empty_filter" viewBox="0 0 100 125">

	</symbol>
</svg>