<svg xmlns="http://www.w3.org/2000/svg" xmlns:xlink="http://www.w3.org/1999/xlink" version="1.1" x="0px" y="0px" viewBox="-38 -38 100 125" enable-background="new -38 -38 100 100" xml:space="preserve">
	<path d="M42-1.333C40.001-1.333,38.667,0,38.667,2v23.333c0,0.668-0.332,20-16.667,20c-12.725,0-15.921-11.25-16.725-16.878  C16.561,27,25.333,17.335,25.333,5.667V-8c0-2-1.334-3.333-3.333-3.333h-6.667v-13.333c0-2-1.334-3.333-3.333-3.333  c-2,0-3.333,1.333-3.333,3.333v13.333H-4.667v-13.333C-4.667-26.667-6-28-8-28s-3.333,1.333-3.333,3.333v13.333H-18  c-2,0-3.333,1.333-3.333,3.333V5.667c0,11.629,8.714,21.265,19.94,22.771C-0.155,38.048,5.543,52,22,52  c18.333,0,23.333-17.334,23.333-26.667V2C45.333,0,43.999-1.333,42-1.333z M-14.667,5.667V-4.667h33.001V5.667  C18.335,14.666,11,22,2,22H1.667C-7.333,22-14.667,14.666-14.667,5.667z"/>
</svg>