<svg xmlns="http://www.w3.org/2000/svg" xmlns:xlink="http://www.w3.org/1999/xlink" version="1.1" x="0px" y="0px" viewBox="0 0 100 125" enable-background="new 0 0 100 100" xml:space="preserve"><g><path d="M84.836,61.899L44.133,16.025c-1.938-2.184-4.724-3.436-7.645-3.436c-2.728,0-5.292,1.062-7.222,2.992L15.582,29.267   c-2.012,2.012-3.072,4.686-2.987,7.529s1.304,5.449,3.432,7.337l45.872,40.703c1.871,1.661,4.279,2.575,6.779,2.575   c2.73,0,5.296-1.062,7.227-2.992l8.514-8.515C88.233,72.088,88.418,65.936,84.836,61.899z M82.473,73.959l-8.514,8.515   c-1.41,1.41-3.285,2.187-5.281,2.187c-1.827,0-3.586-0.668-4.954-1.881L17.851,42.076c-1.555-1.38-2.445-3.284-2.508-5.362   c-0.062-2.078,0.714-4.032,2.185-5.502l13.685-13.685c1.409-1.41,3.283-2.187,5.276-2.187c2.135,0,4.172,0.915,5.588,2.511   l40.703,45.874C85.396,66.674,85.262,71.17,82.473,73.959z"/><path d="M60.42,57.15c1.32,0,2.562-0.514,3.495-1.447c0.935-0.934,1.448-2.175,1.448-3.495c0-1.321-0.514-2.562-1.447-3.495   c-0.934-0.934-2.176-1.448-3.496-1.448c-1.319,0-2.562,0.515-3.495,1.448c-1.926,1.927-1.926,5.062,0,6.99   C57.858,56.636,59.101,57.15,60.42,57.15z M58.87,50.657c0.414-0.414,0.965-0.643,1.55-0.643c0.586,0,1.137,0.229,1.552,0.643   c0.414,0.414,0.642,0.964,0.642,1.55c0,0.585-0.228,1.136-0.643,1.55c-0.826,0.828-2.271,0.829-3.101,0   C58.016,52.903,58.016,51.512,58.87,50.657z"/><path d="M65.363,68.634c0-1.321-0.514-2.562-1.447-3.495c-0.934-0.934-2.176-1.448-3.496-1.448c-1.319,0-2.562,0.515-3.495,1.448   c-1.926,1.927-1.926,5.062,0,6.99c0.934,0.934,2.176,1.448,3.495,1.448c1.32,0,2.562-0.514,3.495-1.447   C64.85,71.196,65.363,69.955,65.363,68.634z M61.971,70.185c-0.826,0.828-2.271,0.829-3.101,0c-0.854-0.855-0.854-2.246,0-3.101   c0.414-0.414,0.965-0.643,1.55-0.643c0.586,0,1.137,0.229,1.552,0.643c0.414,0.414,0.642,0.964,0.642,1.55   C62.613,69.22,62.386,69.771,61.971,70.185z"/><path d="M63.691,60.421c0,1.32,0.514,2.562,1.447,3.495c0.934,0.934,2.176,1.448,3.496,1.448c1.319,0,2.562-0.515,3.495-1.448   c1.926-1.927,1.926-5.062,0-6.99c-0.934-0.934-2.176-1.448-3.495-1.448c-1.32,0-2.562,0.514-3.495,1.447   C64.205,57.859,63.691,59.1,63.691,60.421z M67.084,58.87c0.414-0.414,0.965-0.642,1.551-0.642c0.585,0,1.136,0.228,1.55,0.642   c0.854,0.855,0.854,2.246,0,3.101c-0.829,0.828-2.272,0.828-3.102,0c-0.414-0.414-0.642-0.964-0.642-1.55   C66.441,59.835,66.669,59.284,67.084,58.87z"/><path d="M55.703,56.926c-0.934-0.934-2.176-1.448-3.495-1.448c-1.32,0-2.562,0.514-3.495,1.447   c-0.935,0.934-1.448,2.175-1.448,3.496c0,1.32,0.514,2.562,1.447,3.495c0.934,0.934,2.176,1.448,3.496,1.448   c1.319,0,2.562-0.515,3.495-1.448C57.629,61.988,57.629,58.853,55.703,56.926z M53.758,61.971c-0.829,0.828-2.272,0.828-3.102,0   c-0.414-0.414-0.642-0.964-0.642-1.55c0-0.586,0.228-1.137,0.643-1.551c0.414-0.414,0.965-0.642,1.551-0.642   c0.585,0,1.136,0.228,1.55,0.642C54.612,59.725,54.612,61.116,53.758,61.971z"/><path d="M36.469,27.966c1.394,0,2.704-0.543,3.69-1.529c0.985-0.985,1.528-2.296,1.528-3.69s-0.543-2.705-1.528-3.69   c-0.986-0.986-2.297-1.529-3.69-1.529s-2.704,0.543-3.69,1.529c-0.985,0.985-1.528,2.296-1.528,3.69s0.543,2.705,1.528,3.69   C33.765,27.423,35.075,27.966,36.469,27.966z M34.724,21.001c0.466-0.466,1.086-0.723,1.745-0.723s1.279,0.257,1.745,0.723   c0.467,0.466,0.724,1.086,0.724,1.746s-0.257,1.279-0.724,1.746c-0.932,0.933-2.559,0.933-3.49,0   C34.257,24.026,34,23.406,34,22.747S34.257,21.468,34.724,21.001z"/><path d="M23.188,32.752c-0.537-0.537-1.408-0.537-1.945,0l-3.649,3.649c-0.536,0.537-0.536,1.407,0,1.944l3.649,3.649   c0.269,0.269,0.621,0.403,0.973,0.403s0.704-0.134,0.973-0.403l3.649-3.649c0.536-0.537,0.536-1.407,0-1.944L23.188,32.752z    M22.215,39.079l-1.705-1.705l1.705-1.705l1.705,1.705L22.215,39.079z"/><path d="M70.663,71.637c-0.535-0.537-1.407-0.537-1.944,0l-4.793,4.793c-0.536,0.537-0.536,1.407,0,1.944l3.535,3.536   c0.258,0.258,0.608,0.403,0.973,0.403s0.715-0.145,0.973-0.403l4.794-4.794c0.258-0.258,0.402-0.607,0.402-0.972   s-0.145-0.714-0.403-0.972L70.663,71.637z M68.434,78.994l-1.591-1.591l2.849-2.849l1.592,1.591L68.434,78.994z"/><path d="M78.423,63.879c-0.258-0.258-0.607-0.403-0.973-0.403c-0.364,0-0.715,0.145-0.973,0.403l-4.794,4.793   c-0.536,0.537-0.536,1.407,0,1.944l3.535,3.536c0.258,0.258,0.607,0.403,0.973,0.403c0.364,0,0.715-0.145,0.973-0.403l4.794-4.793   c0.536-0.537,0.536-1.407,0-1.944L78.423,63.879z M76.191,71.236l-1.591-1.591l2.85-2.849l1.591,1.591L76.191,71.236z"/><path d="M50.744,49.723v-6.986c0-0.759-0.615-1.375-1.375-1.375s-1.375,0.616-1.375,1.375v5.611h-5.611   c-0.76,0-1.375,0.616-1.375,1.375s0.615,1.375,1.375,1.375h6.986C50.129,51.098,50.744,50.482,50.744,49.723z"/><path d="M41.008,31.646c0,0.759,0.615,1.375,1.375,1.375h5.611v5.611c0,0.759,0.615,1.375,1.375,1.375s1.375-0.616,1.375-1.375   v-6.986c0-0.759-0.615-1.375-1.375-1.375h-6.986C41.623,30.271,41.008,30.887,41.008,31.646z"/><path d="M31.293,40.007c0.76,0,1.375-0.616,1.375-1.375v-5.611h5.61c0.76,0,1.375-0.616,1.375-1.375s-0.615-1.375-1.375-1.375   h-6.985c-0.76,0-1.375,0.616-1.375,1.375v6.986C29.918,39.392,30.533,40.007,31.293,40.007z"/><path d="M38.278,48.348h-5.61v-5.611c0-0.759-0.615-1.375-1.375-1.375s-1.375,0.616-1.375,1.375v6.986   c0,0.759,0.615,1.375,1.375,1.375h6.985c0.76,0,1.375-0.616,1.375-1.375S39.038,48.348,38.278,48.348z"/><path d="M44.32,43.354c1.472-1.472,1.472-3.867,0-5.339L43,36.695c-1.426-1.425-3.911-1.425-5.339,0l-1.319,1.32   c-1.472,1.472-1.472,3.867,0,5.339l1.319,1.319c0.714,0.713,1.661,1.106,2.67,1.106s1.956-0.393,2.67-1.106L44.32,43.354z    M42.375,41.41l-1.319,1.319c-0.387,0.388-1.062,0.388-1.449,0l-1.319-1.319c-0.194-0.194-0.301-0.451-0.301-0.725   s0.106-0.531,0.301-0.725l1.318-1.319c0.194-0.194,0.451-0.3,0.726-0.3s0.531,0.106,0.725,0.3l1.319,1.32   c0.194,0.194,0.301,0.451,0.301,0.725S42.569,41.216,42.375,41.41z"/></g></svg>