<svg xmlns="http://www.w3.org/2000/svg" xmlns:xlink="http://www.w3.org/1999/xlink" version="1.1" x="0px" y="0px" viewBox="0 0 100 125" enable-background="new 0 0 100 100" xml:space="preserve"><path d="M64.256,49.487c0-1.938-0.293-3.839-0.871-5.652c-0.559-1.753-1.37-3.378-2.41-4.832c-2.08-2.907-4.973-4.943-8.153-5.737  V6.602c0-1.426-0.817-2.664-2.131-3.232c-0.45-0.2-0.927-0.301-1.419-0.301c-0.885,0-1.743,0.334-2.417,0.94L18.359,30.003  c-0.278,0.243-0.489,0.556-0.692,0.86l-11.44,3.016c-1.098,0.283-1.865,1.271-1.865,2.403v27.455c0,1.149,0.749,2.115,1.864,2.402  l11.437,3.015c0.196,0.343,0.472,0.637,0.692,0.857l0.001,0.001l28.499,25.997c0.665,0.595,1.51,0.923,2.379,0.923  c0.491,0,0.956-0.105,1.421-0.319c0.629-0.279,1.163-0.732,1.544-1.309c0.383-0.58,0.586-1.245,0.586-1.923V65.672  c3.184-0.795,6.084-2.824,8.17-5.719c1.045-1.45,1.86-3.072,2.422-4.82C63.961,53.324,64.256,51.424,64.256,49.487z M59.272,49.452  c0,2.478-0.642,4.844-1.857,6.841c-0.583,0.959-1.282,1.802-2.076,2.504c-0.773,0.683-1.619,1.219-2.517,1.592V38.515  c0.898,0.373,1.745,0.909,2.517,1.592c0.794,0.702,1.492,1.545,2.076,2.504C58.63,44.609,59.272,46.974,59.272,49.452z   M45.718,14.699v70.619L24.325,65.822V34.195L45.718,14.699z M17.221,36.137v27.708L9.381,61.8V38.182L17.221,36.137z"/><path d="M72.733,70.418c1.528-1.87,2.847-3.952,3.922-6.188c1.074-2.235,1.901-4.62,2.458-7.089c0.565-2.503,0.851-5.09,0.851-7.689  c0-2.599-0.286-5.185-0.851-7.689c-0.557-2.468-1.384-4.853-2.458-7.089c-1.074-2.236-2.394-4.318-3.922-6.188  c-1.55-1.898-3.314-3.576-5.242-4.987c-0.476-0.35-1.035-0.535-1.616-0.535c-0.865,0-1.658,0.404-2.175,1.107  c-0.433,0.588-0.612,1.304-0.505,2.016c0.107,0.713,0.49,1.343,1.077,1.775c6.422,4.721,10.256,12.792,10.256,21.589  c0,8.798-3.834,16.868-10.257,21.59c-0.574,0.435-0.952,1.065-1.063,1.774c-0.112,0.716,0.062,1.432,0.492,2.017  c0.52,0.694,1.336,1.108,2.181,1.108c0.646,0,1.189-0.181,1.611-0.538C69.421,73.992,71.184,72.314,72.733,70.418z"/><path d="M74.546,5.394c-0.476-0.35-1.035-0.535-1.616-0.535c-0.865,0-1.658,0.404-2.175,1.107c-0.433,0.588-0.612,1.304-0.505,2.016  c0.107,0.712,0.49,1.343,1.077,1.775c11.818,8.665,18.874,23.504,18.874,39.696c0,16.191-7.056,31.031-18.875,39.696  c-0.575,0.435-0.952,1.065-1.063,1.774c-0.112,0.716,0.062,1.432,0.492,2.017c0.52,0.694,1.336,1.108,2.181,1.108  c0.554,0,1.125-0.19,1.609-0.536c13.207-9.722,21.091-26.193,21.091-44.059C95.637,31.526,87.753,15.055,74.546,5.394z"/></svg>