<svg xmlns="http://www.w3.org/2000/svg" xmlns:xlink="http://www.w3.org/1999/xlink" version="1.1" x="0px" y="0px" viewBox="0 0 100 125" enable-background="new 0 0 100 100" xml:space="preserve"><path d="M50,5C25.147,5,5,25.147,5,50s20.147,45,45,45s45-20.147,45-45S74.853,5,50,5z M50,91.5C27.08,91.5,8.5,72.92,8.5,50  C8.5,27.08,27.08,8.5,50,8.5S91.5,27.08,91.5,50C91.5,72.92,72.92,91.5,50,91.5z"/><path d="M19,50c0-17.121,13.879-31,31-31s31,13.879,31,31h3.5c0-19.054-15.446-34.5-34.5-34.5S15.5,30.946,15.5,50H19z"/><circle cx="82.75" cy="50" r="1.75"/><circle cx="17.25" cy="50" r="1.75"/><g><circle cx="61.758" cy="29.653" r="1.75"/><circle cx="50" cy="50" r="1.75"/><path d="M51.751,46.97c-1.674-0.967-3.814-0.394-4.782,1.279c-0.967,1.674-0.394,3.814,1.279,4.782   c1.674,0.967,3.814,0.394,4.782-1.279C53.998,50.078,53.425,47.937,51.751,46.97z"/><rect x="44.129" y="38.077" transform="matrix(0.5004 -0.8658 0.8658 0.5004 -6.5629 68.2806)" width="23.5" height="3.5"/></g></svg>